<?xml version="1.0" encoding="utf-8"?>
<!-- Generator: Adobe Illustrator 16.0.0, SVG Export Plug-In . SVG Version: 6.00 Build 0)  -->
<!DOCTYPE svg PUBLIC "-//W3C//DTD SVG 1.1//EN" "http://www.w3.org/Graphics/SVG/1.1/DTD/svg11.dtd">
<svg version="1.1" id="Layer_1" xmlns="http://www.w3.org/2000/svg" xmlns:xlink="http://www.w3.org/1999/xlink" x="0px" y="0px"
	 width="22.333px" height="22.333px" viewBox="0 0 22.333 22.333" enable-background="new 0 0 22.333 22.333" xml:space="preserve">
<g>
	<circle fill-rule="evenodd" clip-rule="evenodd" fill="#383839" cx="11.167" cy="11.167" r="11.167"/>
	<g>
		<path fill="#FFFFFF" d="M12.424,12.991c-0.165,0.541-0.663,0.939-1.257,0.939s-1.092-0.398-1.258-0.939H4.772
			c-0.323,0-0.63-0.075-0.904-0.206v3.411c0,0.666,0.544,1.211,1.21,1.211h12.178c0.666,0,1.211-0.545,1.211-1.211v-3.41
			c-0.275,0.13-0.582,0.205-0.905,0.205H12.424z M12.424,12.991"/>
		<path fill="#FFFFFF" d="M17.511,6.865h-2.907c-0.174-1.097-1.127-1.939-2.271-1.939h-2.33c-1.146,0-2.098,0.842-2.274,1.939H4.822
			c-0.693,0-1.261,0.546-1.261,1.212v2.794c0,0.67,0.542,1.212,1.21,1.212h5.081c0.016-0.349,0.167-0.662,0.403-0.888
			c0.006-0.007,0.015-0.012,0.022-0.019c0.053-0.047,0.107-0.093,0.167-0.133c0.021-0.013,0.046-0.023,0.068-0.037
			c0.049-0.028,0.098-0.058,0.149-0.079c0.041-0.018,0.087-0.028,0.13-0.04c0.039-0.012,0.074-0.026,0.112-0.034
			c0.084-0.018,0.173-0.026,0.262-0.026c0.09,0,0.177,0.009,0.262,0.026c0.039,0.008,0.074,0.022,0.112,0.034
			c0.043,0.012,0.087,0.022,0.128,0.04c0.053,0.022,0.102,0.05,0.151,0.079c0.022,0.013,0.046,0.023,0.068,0.037
			c0.059,0.04,0.114,0.086,0.165,0.133c0.008,0.007,0.017,0.012,0.024,0.019c0.236,0.228,0.386,0.54,0.403,0.888h5.081
			c0.668,0,1.21-0.542,1.21-1.21V8.078C18.772,7.411,18.205,6.865,17.511,6.865L17.511,6.865z M8.895,6.865
			C9.05,6.4,9.484,6.06,10.002,6.06h2.33c0.517,0,0.951,0.34,1.107,0.806H8.895z M8.895,6.865"/>
	</g>
</g>
</svg>
