<?xml version="1.0" encoding="utf-8"?>
<!-- Generator: Adobe Illustrator 16.0.0, SVG Export Plug-In . SVG Version: 6.00 Build 0)  -->
<!DOCTYPE svg PUBLIC "-//W3C//DTD SVG 1.1//EN" "http://www.w3.org/Graphics/SVG/1.1/DTD/svg11.dtd">
<svg version="1.1" id="Layer_1" xmlns="http://www.w3.org/2000/svg" xmlns:xlink="http://www.w3.org/1999/xlink" x="0px" y="0px"
	 width="22.333px" height="22.334px" viewBox="0 0 22.333 22.334" enable-background="new 0 0 22.333 22.334" xml:space="preserve">
<g>
	<circle fill-rule="evenodd" clip-rule="evenodd" fill="#383839" cx="11.167" cy="11.167" r="11.167"/>
	<g>
		<g>
			<path fill="#FFFFFF" d="M12.213,14.319c-0.29,0.178-0.662,0.276-1.047,0.276s-0.757-0.099-1.047-0.276l-4.74-2.907
				c0,0-0.428-0.262-0.428,0.332v2.903c0,1.528,2.782,3.177,6.214,3.177c3.432,0,6.215-1.648,6.215-3.177v-3.066
				c0-0.478-0.305-0.244-0.305-0.244L12.213,14.319z M12.213,14.319"/>
			<path fill="#FFFFFF" d="M19.049,9.101c0.364-0.224,0.364-0.589,0-0.813l-7.221-3.611c-0.364-0.223-0.96-0.223-1.324,0
				L3.284,8.288c-0.364,0.224-0.364,0.589,0,0.813l7.221,4.428c0.364,0.224,0.96,0.224,1.324,0"/>
		</g>
		<path fill="#FFFFFF" d="M18.75,15.664v-4.891c0,0,0.004-0.232-0.134-0.155c-0.11,0.062-0.381,0.212-0.476,0.295
			c-0.11,0.096-0.086,0.31-0.086,0.31v4.441c0,0.063-0.054,0.093-0.08,0.108c-0.249,0.146-0.417,0.418-0.417,0.729
			c0,0.466,0.378,0.845,0.845,0.845s0.846-0.379,0.846-0.845c0-0.313-0.17-0.584-0.42-0.73C18.803,15.756,18.75,15.728,18.75,15.664
			L18.75,15.664z M18.75,15.664"/>
	</g>
</g>
</svg>
