<?xml version="1.0" encoding="utf-8"?>
<!-- Generator: Adobe Illustrator 16.0.0, SVG Export Plug-In . SVG Version: 6.00 Build 0)  -->
<!DOCTYPE svg PUBLIC "-//W3C//DTD SVG 1.1//EN" "http://www.w3.org/Graphics/SVG/1.1/DTD/svg11.dtd">
<svg version="1.1" id="Layer_1" xmlns="http://www.w3.org/2000/svg" xmlns:xlink="http://www.w3.org/1999/xlink" x="0px" y="0px"
	 width="15.18px" height="16.333px" viewBox="0 0 15.18 16.333" enable-background="new 0 0 15.18 16.333" xml:space="preserve">
<path fill-rule="evenodd" clip-rule="evenodd" fill="#FFFFFF" d="M14.772,12.319l-3.102-1.973h-0.016
	c-0.107-0.068-0.252-0.104-0.435-0.104c-0.257,0-0.481,0.092-0.675,0.277l-0.916,1.003c-0.021,0.022-0.057,0.044-0.104,0.06
	C9.477,11.602,9.442,11.61,9.42,11.61l-0.201-0.043c-0.134-0.029-0.327-0.113-0.579-0.252c-0.251-0.139-0.565-0.354-0.94-0.648
	S6.897,9.96,6.415,9.43C5.922,8.911,5.542,8.452,5.274,8.054C5.006,7.657,4.808,7.319,4.68,7.042c-0.15-0.311-0.247-0.588-0.29-0.83
	c0-0.035,0.008-0.078,0.024-0.13C4.43,6.03,4.449,5.992,4.471,5.969l0.787-0.848c0.14-0.15,0.23-0.334,0.273-0.554
	c0.043-0.219,0.016-0.421-0.081-0.605L3.731,0.45C3.656,0.323,3.565,0.217,3.458,0.13C3.351,0.043,3.228,0,3.088,0
	C2.896,0,2.724,0.081,2.574,0.243L0.437,2.543C0.33,2.647,0.239,2.783,0.164,2.95C0.088,3.118,0.041,3.282,0.019,3.443
	c0,0.023-0.005,0.139-0.016,0.346s0.011,0.493,0.064,0.856s0.155,0.795,0.305,1.297s0.375,1.062,0.675,1.679
	c0.3,0.617,0.697,1.289,1.189,2.016c0.493,0.727,1.114,1.488,1.864,2.283c0.942,1.027,1.832,1.834,2.667,2.423
	c0.836,0.589,1.583,1.029,2.242,1.323c0.659,0.295,1.217,0.479,1.672,0.555c0.455,0.074,0.785,0.111,0.988,0.111
	c0.086,0,0.155-0.002,0.209-0.008c0.053-0.006,0.086-0.009,0.096-0.009c0.15-0.023,0.303-0.075,0.459-0.156
	c0.154-0.081,0.281-0.179,0.377-0.294l2.137-2.283c0.183-0.197,0.258-0.428,0.226-0.693C15.13,12.659,14.997,12.47,14.772,12.319z"
	/>
</svg>
