<?xml version="1.0" encoding="utf-8"?>
<!-- Generator: Adobe Illustrator 16.0.0, SVG Export Plug-In . SVG Version: 6.00 Build 0)  -->
<!DOCTYPE svg PUBLIC "-//W3C//DTD SVG 1.1//EN" "http://www.w3.org/Graphics/SVG/1.1/DTD/svg11.dtd">
<svg version="1.1" id="Layer_1" xmlns="http://www.w3.org/2000/svg" xmlns:xlink="http://www.w3.org/1999/xlink" x="0px" y="0px"
	 width="22.333px" height="22.334px" viewBox="0 0 22.333 22.334" enable-background="new 0 0 22.333 22.334" xml:space="preserve">
<circle fill-rule="evenodd" clip-rule="evenodd" fill="#383839" cx="11.166" cy="11.167" r="11.166"/>
<g>
	<path fill="#FFFFFF" d="M19.765,9.294c-0.526-0.442-1.331-0.39-1.787,0.155l-0.274,0.324l1.945,1.633l0.262-0.324
		C20.362,10.546,20.305,9.746,19.765,9.294z"/>
	<path fill="#FFFFFF" d="M13.473,16.172c-0.038,0.156,0.016,0.32,0.139,0.423c0.119,0.101,0.288,0.13,0.44,0.064l1.554-0.674
		c0.18-0.078,0.341-0.198,0.467-0.348l0.145-0.172l-1.945-1.632l-0.145,0.171c-0.125,0.15-0.216,0.331-0.262,0.521L13.473,16.172z"
		/>
	<polygon fill="#FFFFFF" points="14.819,13.188 16.764,14.82 19.102,12.052 17.158,10.42 	"/>
	<path fill="#FFFFFF" d="M16.377,5.821L14.77,4.294c-0.151-0.145-0.338-0.229-0.535-0.284v2.475h2.512
		C16.694,6.232,16.566,6,16.377,5.821z"/>
	<path fill="#FFFFFF" d="M15.944,16.762l-1.555,0.674c-0.438,0.189-0.945,0.122-1.32-0.192c-0.371-0.311-0.532-0.797-0.42-1.268
		l0.394-1.646c0.075-0.316,0.227-0.616,0.436-0.866l3.296-3.899V7.33h-2.963c-0.234,0-0.423-0.189-0.423-0.423V3.945H7.041
		c-0.7,0-1.27,0.569-1.27,1.27v11.904c0,0.7,0.569,1.27,1.27,1.27h8.464c0.699,0,1.27-0.569,1.27-1.27v-1l-0.055,0.065
		C16.51,16.432,16.243,16.632,15.944,16.762z M7.887,6.484h4.231c0.233,0,0.423,0.188,0.423,0.423c0,0.233-0.189,0.423-0.423,0.423
		H7.887c-0.234,0-0.423-0.189-0.423-0.423C7.464,6.673,7.653,6.484,7.887,6.484z M7.887,9.051h6.771
		c0.233,0,0.423,0.189,0.423,0.424c0,0.233-0.189,0.423-0.423,0.423H7.887c-0.234,0-0.423-0.189-0.423-0.423
		C7.464,9.24,7.653,9.051,7.887,9.051z M7.887,11.59h5.078c0.233,0,0.423,0.189,0.423,0.424c0,0.233-0.189,0.423-0.423,0.423H7.887
		c-0.234,0-0.423-0.189-0.423-0.423C7.464,11.779,7.653,11.59,7.887,11.59z M11.272,14.976H7.887c-0.234,0-0.423-0.189-0.423-0.423
		c0-0.234,0.189-0.424,0.423-0.424h3.385c0.234,0,0.423,0.189,0.423,0.424C11.695,14.786,11.506,14.976,11.272,14.976z"/>
</g>
</svg>
