<?xml version="1.0" encoding="utf-8"?>
<!-- Generator: Adobe Illustrator 16.0.0, SVG Export Plug-In . SVG Version: 6.00 Build 0)  -->
<!DOCTYPE svg PUBLIC "-//W3C//DTD SVG 1.1//EN" "http://www.w3.org/Graphics/SVG/1.1/DTD/svg11.dtd">
<svg version="1.1" id="Layer_1" xmlns="http://www.w3.org/2000/svg" xmlns:xlink="http://www.w3.org/1999/xlink" x="0px" y="0px"
	 width="16.333px" height="16.333px" viewBox="0 0 16.333 16.333" enable-background="new 0 0 16.333 16.333" xml:space="preserve">
<path fill-rule="evenodd" clip-rule="evenodd" fill="#FFFFFF" d="M16.314,7.622c-0.269-4.077-3.526-7.335-7.603-7.604V0H8.167H7.622
	v0.019C3.545,0.287,0.287,3.545,0.019,7.622H0v0.544v0.544h0.019c0.268,4.077,3.527,7.335,7.604,7.603v0.02h0.544h0.544v-0.02
	c4.077-0.268,7.334-3.525,7.603-7.603h0.019V8.167V7.622H16.314z M5.112,1.78C4.586,2.479,4.15,3.356,3.832,4.355H2.201
	C2.911,3.248,3.919,2.352,5.112,1.78z M1.631,5.444h1.914C3.399,6.132,3.307,6.863,3.277,7.622H1.11
	C1.167,6.855,1.348,6.123,1.631,5.444z M1.11,8.711h2.167c0.03,0.759,0.122,1.489,0.268,2.178H1.631
	C1.348,10.21,1.167,9.478,1.11,8.711z M2.201,11.978h1.63c0.318,1,0.754,1.876,1.281,2.575C3.919,13.981,2.911,13.085,2.201,11.978z
	 M7.622,15.174c-1.119-0.299-2.083-1.501-2.668-3.196h2.668V15.174z M7.622,10.889H4.648c-0.153-0.679-0.25-1.411-0.282-2.178h3.256
	V10.889z M7.622,7.622H4.366c0.032-0.767,0.129-1.5,0.282-2.178h2.974V7.622z M7.622,4.355H4.954C5.539,2.66,6.503,1.458,7.622,1.16
	V4.355z M14.131,4.355h-1.629c-0.318-1-0.754-1.876-1.281-2.576C12.414,2.352,13.422,3.248,14.131,4.355z M8.711,1.16
	c1.119,0.298,2.083,1.5,2.668,3.196H8.711V1.16z M8.711,5.444h2.973c0.154,0.678,0.25,1.411,0.283,2.178H8.711V5.444z M8.711,8.711
	h3.256c-0.032,0.767-0.129,1.499-0.283,2.178H8.711V8.711z M8.711,15.174v-3.196h2.668C10.794,13.673,9.83,14.875,8.711,15.174z
	 M11.221,14.553c0.525-0.699,0.963-1.575,1.281-2.575h1.629C13.422,13.085,12.414,13.981,11.221,14.553z M14.702,10.889h-1.914
	c0.146-0.688,0.238-1.419,0.269-2.178h2.167C15.166,9.478,14.985,10.21,14.702,10.889z M13.056,7.622
	c-0.03-0.759-0.122-1.49-0.269-2.178h1.914c0.283,0.678,0.464,1.411,0.521,2.178H13.056z"/>
</svg>
