<?xml version="1.0" encoding="utf-8"?>
<!-- Generator: Adobe Illustrator 16.0.0, SVG Export Plug-In . SVG Version: 6.00 Build 0)  -->
<!DOCTYPE svg PUBLIC "-//W3C//DTD SVG 1.1//EN" "http://www.w3.org/Graphics/SVG/1.1/DTD/svg11.dtd">
<svg version="1.1" xmlns="http://www.w3.org/2000/svg" xmlns:xlink="http://www.w3.org/1999/xlink" x="0px" y="0px"
	 width="282.705px" height="399.776px" viewBox="0 0 282.705 399.776" enable-background="new 0 0 282.705 399.776"
	 xml:space="preserve">
<g id="BACKGROUND" display="none">
	<linearGradient id="SVGID_1_" gradientUnits="userSpaceOnUse" x1="141.3354" y1="-65.6968" x2="141.3354" y2="487.0187">
		<stop  offset="0" style="stop-color:#FFFFFF"/>
		<stop  offset="1" style="stop-color:#8D8B90"/>
	</linearGradient>
	<rect x="-108.664" y="-36.697" display="inline" fill="url(#SVGID_1_)" width="500" height="500"/>
	
		<radialGradient id="SVGID_2_" cx="146.1631" cy="-354.564" r="205.4521" gradientTransform="matrix(1 0 0 0.0774 0 421.1002)" gradientUnits="userSpaceOnUse">
		<stop  offset="0" style="stop-color:#525254"/>
		<stop  offset="1" style="stop-color:#FFFFFF"/>
	</radialGradient>
	<ellipse display="inline" fill="url(#SVGID_2_)" cx="146.163" cy="393.657" rx="205.506" ry="15.898"/>
</g>
<g id="OBJECTS">
	<g>
		<rect fill="#FFFFFF" width="282.672" height="399.776"/>
		<g>
			<polygon fill="#222222" points="126.608,186.75 64.219,245.655 70.492,245.655 132.882,186.75 			"/>
			<polygon fill="#222222" points="49.206,245.655 111.595,186.75 105.836,186.75 76.465,213.995 42.933,245.655 			"/>
			<polygon fill="#222222" points="122.238,186.75 115.965,186.75 53.576,245.655 59.849,245.655 			"/>
			<polygon fill="#222222" points="137.251,186.75 116.362,206.472 282.672,206.472 282.672,186.75 			"/>
			<polygon fill="#222222" points="59.896,225.513 0,225.513 0,245.655 38.563,245.655 			"/>
		</g>
		<g>
			<polygon fill="#222222" points="70.492,279.977 64.219,279.977 126.608,338.883 132.882,338.883 			"/>
			<polygon fill="#222222" points="49.206,279.977 42.933,279.977 76.465,311.637 105.836,338.883 111.595,338.883 			"/>
			<polygon fill="#222222" points="59.849,279.977 53.576,279.977 115.965,338.883 122.238,338.883 			"/>
			<polygon fill="#222222" points="38.563,279.977 0,279.977 0,300.12 59.896,300.12 			"/>
			<polygon fill="#222222" points="116.362,319.161 137.251,338.883 282.672,338.883 282.672,319.161 			"/>
		</g>
		<g display="none">
			<g display="inline">
				<text transform="matrix(1 0 0 1 34.8203 113.6411)" fill="#222222" font-family="'Montserrat-Medium'" font-size="7">CONTACT</text>
			</g>
			<g display="inline">
				<g>
					<g>
						<g>
							<path fill="#222222" d="M22.729,199.641c0.673,0,0.753,0.002,1.019,0.015c0.246,0.011,0.379,0.052,0.468,0.086
								c0.118,0.046,0.202,0.101,0.29,0.188c0.088,0.088,0.143,0.172,0.188,0.29c0.035,0.089,0.076,0.222,0.087,0.468
								c0.012,0.266,0.015,0.345,0.015,1.018c0,0.673-0.002,0.753-0.015,1.019c-0.011,0.246-0.052,0.379-0.087,0.468
								c-0.046,0.118-0.1,0.201-0.188,0.29s-0.172,0.143-0.29,0.188c-0.089,0.035-0.222,0.076-0.468,0.087
								c-0.266,0.012-0.346,0.015-1.019,0.015s-0.753-0.002-1.019-0.015c-0.246-0.011-0.379-0.052-0.468-0.087
								c-0.118-0.045-0.202-0.1-0.29-0.188c-0.088-0.088-0.143-0.172-0.188-0.29c-0.034-0.089-0.076-0.223-0.087-0.468
								c-0.012-0.266-0.015-0.345-0.015-1.019c0-0.673,0.002-0.752,0.015-1.018c0.011-0.246,0.053-0.379,0.087-0.468
								c0.046-0.118,0.101-0.202,0.188-0.29c0.088-0.088,0.172-0.143,0.29-0.188c0.089-0.034,0.222-0.076,0.468-0.086
								C21.977,199.643,22.057,199.641,22.729,199.641 M22.729,199.187c-0.685,0-0.771,0.003-1.039,0.015s-0.452,0.055-0.612,0.117
								c-0.166,0.064-0.306,0.151-0.446,0.291s-0.227,0.281-0.291,0.446c-0.062,0.16-0.105,0.344-0.117,0.612
								c-0.012,0.269-0.015,0.354-0.015,1.039s0.003,0.771,0.015,1.039s0.055,0.452,0.117,0.612
								c0.064,0.166,0.151,0.307,0.291,0.447s0.281,0.226,0.446,0.291c0.16,0.063,0.343,0.105,0.612,0.117s0.354,0.015,1.039,0.015
								s0.771-0.003,1.039-0.015s0.452-0.055,0.612-0.117c0.166-0.064,0.307-0.15,0.447-0.291s0.226-0.281,0.291-0.447
								c0.063-0.16,0.105-0.343,0.117-0.612s0.015-0.354,0.015-1.039s-0.003-0.77-0.015-1.039c-0.012-0.268-0.055-0.452-0.117-0.612
								c-0.064-0.166-0.15-0.306-0.291-0.446s-0.281-0.227-0.447-0.291c-0.16-0.062-0.343-0.105-0.612-0.117
								S23.414,199.187,22.729,199.187"/>
							<path fill="#222222" d="M22.729,200.413c-0.715,0-1.294,0.58-1.294,1.294s0.58,1.294,1.294,1.294s1.294-0.58,1.294-1.294
								S23.444,200.413,22.729,200.413 M22.729,202.547c-0.464,0-0.84-0.376-0.84-0.84s0.376-0.84,0.84-0.84s0.84,0.376,0.84,0.84
								S23.193,202.547,22.729,202.547"/>
							<path fill="#222222" d="M24.377,200.362c0,0.167-0.135,0.302-0.302,0.302s-0.303-0.135-0.303-0.302s0.136-0.303,0.303-0.303
								S24.377,200.195,24.377,200.362"/>
						</g>
						<g>
							<path fill="#222222" d="M22.729,205.951c-2.388,0-4.331-1.943-4.331-4.331s1.943-4.331,4.331-4.331s4.331,1.943,4.331,4.331
								S25.118,205.951,22.729,205.951z M22.729,197.67c-2.178,0-3.95,1.772-3.95,3.95s1.772,3.95,3.95,3.95s3.95-1.772,3.95-3.95
								S24.907,197.67,22.729,197.67z"/>
						</g>
					</g>
					<g>
						<path fill="#222222" d="M21.921,181.101h1.169v-2.93h0.816l0.087-0.98H23.09c0,0,0-0.366,0-0.559
							c0-0.231,0.046-0.323,0.271-0.323c0.18,0,0.633,0,0.633,0v-1.018c0,0-0.667,0-0.81,0c-0.87,0-1.263,0.383-1.263,1.117
							c0,0.639,0,0.782,0,0.782h-0.609v0.993h0.609V181.101z"/>
						<g>
							<path fill="#222222" d="M22.729,182.792c-2.535,0-4.597-2.062-4.597-4.597c0-2.535,2.062-4.597,4.597-4.597
								s4.597,2.062,4.597,4.597C27.326,180.73,25.264,182.792,22.729,182.792z M22.729,174.003c-2.312,0-4.192,1.881-4.192,4.192
								c0,2.311,1.881,4.192,4.192,4.192c2.311,0,4.192-1.881,4.192-4.192C26.922,175.884,25.041,174.003,22.729,174.003z"/>
						</g>
					</g>
					<g>
						<path fill="#222222" d="M20.04,191.81c0.475,0.304,1.038,0.481,1.644,0.481c1.991,0,3.115-1.681,3.047-3.189
							c0.209-0.151,0.392-0.34,0.535-0.555c-0.192,0.085-0.399,0.143-0.616,0.168c0.221-0.132,0.391-0.342,0.471-0.593
							c-0.207,0.123-0.437,0.212-0.681,0.261c-0.196-0.208-0.474-0.339-0.783-0.339c-0.692,0-1.201,0.646-1.044,1.316
							c-0.891-0.044-1.681-0.471-2.21-1.12c-0.281,0.482-0.146,1.112,0.332,1.432c-0.176-0.006-0.341-0.054-0.486-0.134
							c-0.012,0.497,0.344,0.961,0.86,1.065c-0.151,0.041-0.316,0.05-0.484,0.019c0.136,0.426,0.532,0.736,1.001,0.745
							C21.177,191.719,20.609,191.877,20.04,191.81z"/>
						<g>
							<path fill="#222222" d="M22.653,194.661c-2.548,0-4.621-2.073-4.621-4.62c0-2.548,2.073-4.621,4.621-4.621
								c2.547,0,4.621,2.073,4.621,4.621C27.274,192.588,25.201,194.661,22.653,194.661z M22.653,185.827
								c-2.324,0-4.214,1.891-4.214,4.214c0,2.323,1.891,4.213,4.214,4.213c2.323,0,4.214-1.891,4.214-4.213
								C26.867,187.717,24.977,185.827,22.653,185.827z"/>
						</g>
					</g>
					<g>
						<text transform="matrix(1 0 0 1 30.9277 181.897)" fill="#222222" font-family="'Montserrat-Medium'" font-size="5.1776">brownw</text>
					</g>
					<g>
						<text transform="matrix(1 0 0 1 30.9277 192.2915)" fill="#222222" font-family="'Montserrat-Medium'" font-size="5.1776">@brownw</text>
					</g>
					<g>
						<text transform="matrix(1 0 0 1 31.479 203.0015)" fill="#222222" font-family="'Montserrat-Medium'" font-size="5.1776">brownw</text>
					</g>
				</g>
				<g>
					<text transform="matrix(1 0 0 1 31.4785 148.6348)" fill="#222222" font-family="'Montserrat-Medium'" font-size="5.1776">art@brownw.com</text>
				</g>
				<g>
					<text transform="matrix(1 0 0 1 31.479 136.6885)" fill="#222222" font-family="'Montserrat-Medium'" font-size="5.1776">123 456 789</text>
				</g>
				<g>
					<text transform="matrix(1 0 0 1 31.479 161.5073)" fill="#222222" font-family="'Montserrat-Medium'" font-size="5.1776">Your address</text>
				</g>
				<path fill="#222222" d="M24.368,127.521h-4.13c-0.432,0-0.786,0.354-0.786,0.786v9.539c0,0.432,0.354,0.786,0.786,0.786h4.13
					c0.432,0,0.786-0.354,0.786-0.786v-9.539C25.154,127.875,24.8,127.521,24.368,127.521z M22.303,138.157
					c-0.404,0-0.731-0.327-0.731-0.731s0.327-0.731,0.731-0.731s0.731,0.327,0.731,0.731S22.707,138.157,22.303,138.157z
					 M24.459,135.836c0,0.202-0.164,0.365-0.365,0.365h-3.691c-0.202,0-0.365-0.164-0.365-0.365v-7.291
					c0-0.202,0.164-0.366,0.365-0.366h3.691c0.202,0,0.365,0.164,0.365,0.366V135.836z"/>
				<g>
					<g>
						<g>
							<path fill="#222222" d="M26.824,149.806h-9.323v-6.581h9.323V149.806z M18.339,148.968h7.647v-4.906h-7.647V148.968z"/>
						</g>
						<g>
							<polygon fill="#222222" points="22.162,147.021 17.686,143.991 18.155,143.297 22.162,146.01 26.17,143.297 26.639,143.991 
															"/>
						</g>
					</g>
				</g>
				<path fill="#222222" d="M25.745,157.896c0-1.931-1.565-3.497-3.496-3.497s-3.497,1.565-3.497,3.497
					c0,0.396,0.104,0.762,0.226,1.118l-0.027-0.002l0.042,0.073c0.102,0.28,0.263,0.517,0.429,0.758l2.14,3.776
					c0.304,0.537,1.077,0.541,1.387,0.007l2.318-3.993l-0.046-0.005C25.523,159.109,25.745,158.54,25.745,157.896z M22.176,160.031
					c-1.238,0-2.243-1.004-2.243-2.243c0-1.239,1.004-2.243,2.243-2.243c1.239,0,2.243,1.004,2.243,2.243
					C24.419,159.026,23.415,160.031,22.176,160.031z"/>
				
					<line fill="none" stroke="#212021" stroke-width="0.6472" stroke-miterlimit="10" x1="16.747" y1="169.204" x2="80.449" y2="169.204"/>
			</g>
			<g display="inline">
				<g>
					
						<path fill="none" stroke="#222222" stroke-width="0.9848" stroke-linecap="round" stroke-linejoin="round" stroke-miterlimit="10" d="
						M23.515,118.493c-4.434,0-8.027-3.594-8.027-8.028s3.594-8.028,8.027-8.028"/>
					<circle fill="#222222" cx="23.515" cy="110.465" r="5.691"/>
				</g>
				<g>
					<ellipse fill="#FFFFFF" cx="23.515" cy="108.958" rx="1.788" ry="1.853"/>
					<path fill="#FFFFFF" d="M26.241,113.803c-0.113-1.459-1.289-2.607-2.726-2.607s-2.613,1.148-2.726,2.607H26.241z"/>
				</g>
			</g>
		</g>
		<g display="none">
			<g display="inline">
				<rect x="111.164" y="121.805" fill="none" width="156.197" height="49.245"/>
				<text transform="matrix(1 0 0 1 111.1636 124.645)"><tspan x="0" y="0" fill="#606060" font-family="'Montserrat-Medium'" font-size="4">Lorem</tspan><tspan x="10.732" y="0" fill="#606060" font-family="'Montserrat-Medium'" font-size="4"> </tspan><tspan x="11.672" y="0" fill="#606060" font-family="'Montserrat-Medium'" font-size="4">ipsum</tspan><tspan x="22.008" y="0" fill="#606060" font-family="'Montserrat-Medium'" font-size="4"> </tspan><tspan x="22.947" y="0" fill="#606060" font-family="'Montserrat-Medium'" font-size="4">dolor</tspan><tspan x="31.846" y="0" fill="#606060" font-family="'Montserrat-Medium'" font-size="4"> </tspan><tspan x="32.787" y="0" fill="#606060" font-family="'Montserrat-Medium'" font-size="4">sit</tspan><tspan x="36.631" y="0" fill="#606060" font-family="'Montserrat-Medium'" font-size="4"> </tspan><tspan x="37.571" y="0" fill="#606060" font-family="'Montserrat-Medium'" font-size="4">amet,</tspan><tspan x="46.991" y="0" fill="#606060" font-family="'Montserrat-Medium'" font-size="4"> </tspan><tspan x="47.93" y="0" fill="#606060" font-family="'Montserrat-Medium'" font-size="4">consectetur</tspan><tspan x="67.682" y="0" fill="#606060" font-family="'Montserrat-Medium'" font-size="4"> </tspan><tspan x="68.622" y="0" fill="#606060" font-family="'Montserrat-Medium'" font-size="4">adipiscing</tspan><tspan x="85.721" y="0" fill="#606060" font-family="'Montserrat-Medium'" font-size="4"> </tspan><tspan x="86.661" y="0" fill="#606060" font-family="'Montserrat-Medium'" font-size="4">elit,</tspan><tspan x="92.698" y="0" fill="#606060" font-family="'Montserrat-Medium'" font-size="4"> </tspan><tspan x="93.637" y="0" fill="#606060" font-family="'Montserrat-Medium'" font-size="4">sed</tspan><tspan x="99.481" y="0" fill="#606060" font-family="'Montserrat-Medium'" font-size="4"> </tspan><tspan x="100.42" y="0" fill="#606060" font-family="'Montserrat-Medium'" font-size="4">do</tspan><tspan x="104.872" y="0" fill="#606060" font-family="'Montserrat-Medium'" font-size="4"> </tspan><tspan x="105.811" y="0" fill="#606060" font-family="'Montserrat-Medium'" font-size="4">eiusmod</tspan><tspan x="120.328" y="0" fill="#606060" font-family="'Montserrat-Medium'" font-size="4"> </tspan><tspan x="121.266" y="0" fill="#606060" font-family="'Montserrat-Medium'" font-size="4">tempor</tspan><tspan x="133.71" y="0" fill="#606060" font-family="'Montserrat-Medium'" font-size="4"> </tspan><tspan x="134.65" y="0" fill="#606060" font-family="'Montserrat-Medium'" font-size="4">incididunt</tspan><tspan x="151.728" y="0" fill="#606060" font-family="'Montserrat-Medium'" font-size="4"> </tspan><tspan x="152.667" y="0" fill="#606060" font-family="'Montserrat-Medium'" font-size="4">ut </tspan><tspan x="0" y="6" fill="#606060" font-family="'Montserrat-Medium'" font-size="4">labore</tspan><tspan x="10.655" y="6" fill="#606060" font-family="'Montserrat-Medium'" font-size="4"> </tspan><tspan x="11.8" y="6" fill="#606060" font-family="'Montserrat-Medium'" font-size="4">et</tspan><tspan x="15.128" y="6" fill="#606060" font-family="'Montserrat-Medium'" font-size="4"> </tspan><tspan x="16.272" y="6" fill="#606060" font-family="'Montserrat-Medium'" font-size="4">dolore</tspan><tspan x="27.175" y="6" fill="#606060" font-family="'Montserrat-Medium'" font-size="4"> </tspan><tspan x="28.32" y="6" fill="#606060" font-family="'Montserrat-Medium'" font-size="4">magna</tspan><tspan x="39.967" y="6" fill="#606060" font-family="'Montserrat-Medium'" font-size="4"> </tspan><tspan x="41.112" y="6" fill="#606060" font-family="'Montserrat-Medium'" font-size="4">aliqua.</tspan><tspan x="52.131" y="6" fill="#606060" font-family="'Montserrat-Medium'" font-size="4"> </tspan><tspan x="53.276" y="6" fill="#606060" font-family="'Montserrat-Medium'" font-size="4">Ut</tspan><tspan x="57.188" y="6" fill="#606060" font-family="'Montserrat-Medium'" font-size="4"> </tspan><tspan x="58.333" y="6" fill="#606060" font-family="'Montserrat-Medium'" font-size="4">enim</tspan><tspan x="66.829" y="6" fill="#606060" font-family="'Montserrat-Medium'" font-size="4"> </tspan><tspan x="67.973" y="6" fill="#606060" font-family="'Montserrat-Medium'" font-size="4">ad</tspan><tspan x="72.157" y="6" fill="#606060" font-family="'Montserrat-Medium'" font-size="4"> </tspan><tspan x="73.3" y="6" fill="#606060" font-family="'Montserrat-Medium'" font-size="4">minim</tspan><tspan x="84.064" y="6" fill="#606060" font-family="'Montserrat-Medium'" font-size="4"> </tspan><tspan x="85.208" y="6" fill="#606060" font-family="'Montserrat-Medium'" font-size="4">veniam,</tspan><tspan x="98.384" y="6" fill="#606060" font-family="'Montserrat-Medium'" font-size="4"> </tspan><tspan x="99.529" y="6" fill="#606060" font-family="'Montserrat-Medium'" font-size="4">quis</tspan><tspan x="106.504" y="6" fill="#606060" font-family="'Montserrat-Medium'" font-size="4"> </tspan><tspan x="107.649" y="6" fill="#606060" font-family="'Montserrat-Medium'" font-size="4">nostrud</tspan><tspan x="120.741" y="6" fill="#606060" font-family="'Montserrat-Medium'" font-size="4"> </tspan><tspan x="121.885" y="6" fill="#606060" font-family="'Montserrat-Medium'" font-size="4">exercitation</tspan><tspan x="141.708" y="6" fill="#606060" font-family="'Montserrat-Medium'" font-size="4"> </tspan><tspan x="142.851" y="6" fill="#606060" font-family="'Montserrat-Medium'" font-size="4">ullamco </tspan><tspan x="0" y="12" fill="#606060" font-family="'Montserrat-Medium'" font-size="4">laboris</tspan><tspan x="11.171" y="12" fill="#606060" font-family="'Montserrat-Medium'" font-size="4"> </tspan><tspan x="12.551" y="12" fill="#606060" font-family="'Montserrat-Medium'" font-size="4">nisi</tspan><tspan x="18.228" y="12" fill="#606060" font-family="'Montserrat-Medium'" font-size="4"> </tspan><tspan x="19.607" y="12" fill="#606060" font-family="'Montserrat-Medium'" font-size="4">ut</tspan><tspan x="23.135" y="12" fill="#606060" font-family="'Montserrat-Medium'" font-size="4"> </tspan><tspan x="24.515" y="12" fill="#606060" font-family="'Montserrat-Medium'" font-size="4">aliquip</tspan><tspan x="35.991" y="12" fill="#606060" font-family="'Montserrat-Medium'" font-size="4"> </tspan><tspan x="37.372" y="12" fill="#606060" font-family="'Montserrat-Medium'" font-size="4">ex</tspan><tspan x="41.227" y="12" fill="#606060" font-family="'Montserrat-Medium'" font-size="4"> </tspan><tspan x="42.607" y="12" fill="#606060" font-family="'Montserrat-Medium'" font-size="4">ea.Lorem</tspan><tspan x="58.098" y="12" fill="#606060" font-family="'Montserrat-Medium'" font-size="4"> </tspan><tspan x="59.479" y="12" fill="#606060" font-family="'Montserrat-Medium'" font-size="4">ipsum</tspan><tspan x="69.815" y="12" fill="#606060" font-family="'Montserrat-Medium'" font-size="4"> </tspan><tspan x="71.194" y="12" fill="#606060" font-family="'Montserrat-Medium'" font-size="4">dolor</tspan><tspan x="80.094" y="12" fill="#606060" font-family="'Montserrat-Medium'" font-size="4"> </tspan><tspan x="81.473" y="12" fill="#606060" font-family="'Montserrat-Medium'" font-size="4">sit</tspan><tspan x="85.318" y="12" fill="#606060" font-family="'Montserrat-Medium'" font-size="4"> </tspan><tspan x="86.698" y="12" fill="#606060" font-family="'Montserrat-Medium'" font-size="4">amet,</tspan><tspan x="96.118" y="12" fill="#606060" font-family="'Montserrat-Medium'" font-size="4"> </tspan><tspan x="97.498" y="12" fill="#606060" font-family="'Montserrat-Medium'" font-size="4">consectetur</tspan><tspan x="117.25" y="12" fill="#606060" font-family="'Montserrat-Medium'" font-size="4"> </tspan><tspan x="118.629" y="12" fill="#606060" font-family="'Montserrat-Medium'" font-size="4">adipiscing</tspan><tspan x="135.728" y="12" fill="#606060" font-family="'Montserrat-Medium'" font-size="4"> </tspan><tspan x="137.107" y="12" fill="#606060" font-family="'Montserrat-Medium'" font-size="4">elit,</tspan><tspan x="143.143" y="12" fill="#606060" font-family="'Montserrat-Medium'" font-size="4"> </tspan><tspan x="144.523" y="12" fill="#606060" font-family="'Montserrat-Medium'" font-size="4">sed</tspan><tspan x="150.367" y="12" fill="#606060" font-family="'Montserrat-Medium'" font-size="4"> </tspan><tspan x="151.746" y="12" fill="#606060" font-family="'Montserrat-Medium'" font-size="4">do </tspan><tspan x="0" y="18" fill="#606060" font-family="'Montserrat-Medium'" font-size="4">eiusmod</tspan><tspan x="14.516" y="18" fill="#606060" font-family="'Montserrat-Medium'" font-size="4"> </tspan><tspan x="15.631" y="18" fill="#606060" font-family="'Montserrat-Medium'" font-size="4">.Lorem</tspan><tspan x="27.19" y="18" fill="#606060" font-family="'Montserrat-Medium'" font-size="4"> </tspan><tspan x="28.306" y="18" fill="#606060" font-family="'Montserrat-Medium'" font-size="4">ipsum</tspan><tspan x="38.642" y="18" fill="#606060" font-family="'Montserrat-Medium'" font-size="4"> </tspan><tspan x="39.757" y="18" fill="#606060" font-family="'Montserrat-Medium'" font-size="4">dolor</tspan><tspan x="48.657" y="18" fill="#606060" font-family="'Montserrat-Medium'" font-size="4"> </tspan><tspan x="49.772" y="18" fill="#606060" font-family="'Montserrat-Medium'" font-size="4">sit</tspan><tspan x="53.616" y="18" fill="#606060" font-family="'Montserrat-Medium'" font-size="4"> </tspan><tspan x="54.731" y="18" fill="#606060" font-family="'Montserrat-Medium'" font-size="4">amet,</tspan><tspan x="64.152" y="18" fill="#606060" font-family="'Montserrat-Medium'" font-size="4"> </tspan><tspan x="65.268" y="18" fill="#606060" font-family="'Montserrat-Medium'" font-size="4">consectetuer</tspan><tspan x="87.024" y="18" fill="#606060" font-family="'Montserrat-Medium'" font-size="4"> </tspan><tspan x="88.139" y="18" fill="#606060" font-family="'Montserrat-Medium'" font-size="4">adipiscing</tspan><tspan x="105.238" y="18" fill="#606060" font-family="'Montserrat-Medium'" font-size="4"> </tspan><tspan x="106.353" y="18" fill="#606060" font-family="'Montserrat-Medium'" font-size="4">elit,</tspan><tspan x="112.389" y="18" fill="#606060" font-family="'Montserrat-Medium'" font-size="4"> </tspan><tspan x="113.504" y="18" fill="#606060" font-family="'Montserrat-Medium'" font-size="4">sed</tspan><tspan x="119.348" y="18" fill="#606060" font-family="'Montserrat-Medium'" font-size="4"> </tspan><tspan x="120.463" y="18" fill="#606060" font-family="'Montserrat-Medium'" font-size="4">diam</tspan><tspan x="128.918" y="18" fill="#606060" font-family="'Montserrat-Medium'" font-size="4"> </tspan><tspan x="130.034" y="18" fill="#606060" font-family="'Montserrat-Medium'" font-size="4">nonummy</tspan><tspan x="147.429" y="18" fill="#606060" font-family="'Montserrat-Medium'" font-size="4"> </tspan><tspan x="148.543" y="18" fill="#606060" font-family="'Montserrat-Medium'" font-size="4">nibh </tspan><tspan x="0" y="24" fill="#606060" font-family="'Montserrat-Medium'" font-size="4">euismod</tspan><tspan x="14.516" y="24" fill="#606060" font-family="'Montserrat-Medium'" font-size="4"> </tspan><tspan x="16.045" y="24" fill="#606060" font-family="'Montserrat-Medium'" font-size="4">tincidunt</tspan><tspan x="31.258" y="24" fill="#606060" font-family="'Montserrat-Medium'" font-size="4"> </tspan><tspan x="32.789" y="24" fill="#606060" font-family="'Montserrat-Medium'" font-size="4">ut</tspan><tspan x="36.317" y="24" fill="#606060" font-family="'Montserrat-Medium'" font-size="4"> </tspan><tspan x="37.846" y="24" fill="#606060" font-family="'Montserrat-Medium'" font-size="4">laoreet</tspan><tspan x="49.553" y="24" fill="#606060" font-family="'Montserrat-Medium'" font-size="4"> </tspan><tspan x="51.084" y="24" fill="#606060" font-family="'Montserrat-Medium'" font-size="4">dolore</tspan><tspan x="61.987" y="24" fill="#606060" font-family="'Montserrat-Medium'" font-size="4"> </tspan><tspan x="63.517" y="24" fill="#606060" font-family="'Montserrat-Medium'" font-size="4">magna</tspan><tspan x="75.165" y="24" fill="#606060" font-family="'Montserrat-Medium'" font-size="4"> </tspan><tspan x="76.695" y="24" fill="#606060" font-family="'Montserrat-Medium'" font-size="4">aliquam</tspan><tspan x="90.223" y="24" fill="#606060" font-family="'Montserrat-Medium'" font-size="4"> </tspan><tspan x="91.752" y="24" fill="#606060" font-family="'Montserrat-Medium'" font-size="4">erat</tspan><tspan x="98.317" y="24" fill="#606060" font-family="'Montserrat-Medium'" font-size="4"> </tspan><tspan x="99.846" y="24" fill="#606060" font-family="'Montserrat-Medium'" font-size="4">volutpat.</tspan><tspan x="114.793" y="24" fill="#606060" font-family="'Montserrat-Medium'" font-size="4"> </tspan><tspan x="116.325" y="24" fill="#606060" font-family="'Montserrat-Medium'" font-size="4">Ut</tspan><tspan x="120.236" y="24" fill="#606060" font-family="'Montserrat-Medium'" font-size="4"> </tspan><tspan x="121.766" y="24" fill="#606060" font-family="'Montserrat-Medium'" font-size="4">wisi</tspan><tspan x="128.166" y="24" fill="#606060" font-family="'Montserrat-Medium'" font-size="4"> </tspan><tspan x="129.695" y="24" fill="#606060" font-family="'Montserrat-Medium'" font-size="4">enim</tspan><tspan x="138.19" y="24" fill="#606060" font-family="'Montserrat-Medium'" font-size="4"> </tspan><tspan x="139.719" y="24" fill="#606060" font-family="'Montserrat-Medium'" font-size="4">ad</tspan><tspan x="143.903" y="24" fill="#606060" font-family="'Montserrat-Medium'" font-size="4"> </tspan><tspan x="145.432" y="24" fill="#606060" font-family="'Montserrat-Medium'" font-size="4">minim </tspan><tspan x="0" y="30" fill="#606060" font-family="'Montserrat-Medium'" font-size="4">veniam,</tspan><tspan x="13.176" y="30" fill="#606060" font-family="'Montserrat-Medium'" font-size="4"> </tspan><tspan x="14.077" y="30" fill="#606060" font-family="'Montserrat-Medium'" font-size="4">quis</tspan><tspan x="21.053" y="30" fill="#606060" font-family="'Montserrat-Medium'" font-size="4"> </tspan><tspan x="21.954" y="30" fill="#606060" font-family="'Montserrat-Medium'" font-size="4">nostrud</tspan><tspan x="35.045" y="30" fill="#606060" font-family="'Montserrat-Medium'" font-size="4"> </tspan><tspan x="35.946" y="30" fill="#606060" font-family="'Montserrat-Medium'" font-size="4">exerci</tspan><tspan x="45.842" y="30" fill="#606060" font-family="'Montserrat-Medium'" font-size="4"> </tspan><tspan x="46.743" y="30" fill="#606060" font-family="'Montserrat-Medium'" font-size="4">tation</tspan><tspan x="56.67" y="30" fill="#606060" font-family="'Montserrat-Medium'" font-size="4"> </tspan><tspan x="57.571" y="30" fill="#606060" font-family="'Montserrat-Medium'" font-size="4">ullamcorper</tspan><tspan x="77.811" y="30" fill="#606060" font-family="'Montserrat-Medium'" font-size="4"> </tspan><tspan x="78.711" y="30" fill="#606060" font-family="'Montserrat-Medium'" font-size="4">suscipit</tspan><tspan x="91.348" y="30" fill="#606060" font-family="'Montserrat-Medium'" font-size="4"> </tspan><tspan x="92.249" y="30" fill="#606060" font-family="'Montserrat-Medium'" font-size="4">lobortis</tspan><tspan x="105.012" y="30" fill="#606060" font-family="'Montserrat-Medium'" font-size="4"> </tspan><tspan x="105.913" y="30" fill="#606060" font-family="'Montserrat-Medium'" font-size="4">nisl</tspan><tspan x="111.596" y="30" fill="#606060" font-family="'Montserrat-Medium'" font-size="4"> </tspan><tspan x="112.497" y="30" fill="#606060" font-family="'Montserrat-Medium'" font-size="4">ut</tspan><tspan x="116.025" y="30" fill="#606060" font-family="'Montserrat-Medium'" font-size="4"> </tspan><tspan x="116.925" y="30" fill="#606060" font-family="'Montserrat-Medium'" font-size="4">aliquip</tspan><tspan x="128.402" y="30" fill="#606060" font-family="'Montserrat-Medium'" font-size="4"> </tspan><tspan x="129.301" y="30" fill="#606060" font-family="'Montserrat-Medium'" font-size="4">ex</tspan><tspan x="133.157" y="30" fill="#606060" font-family="'Montserrat-Medium'" font-size="4"> </tspan><tspan x="134.057" y="30" fill="#606060" font-family="'Montserrat-Medium'" font-size="4">ea</tspan><tspan x="137.989" y="30" fill="#606060" font-family="'Montserrat-Medium'" font-size="4"> </tspan><tspan x="138.889" y="30" fill="#606060" font-family="'Montserrat-Medium'" font-size="4">commodo </tspan><tspan x="0" y="36" fill="#606060" font-family="'Montserrat-Medium'" font-size="4">consequat. Duis autem vel eum iriure </tspan></text>
			</g>
			<g display="inline">
				<text transform="matrix(1 0 0 1 128.4497 113.8032)" fill="#222222" font-family="'Montserrat-Medium'" font-size="7">ABOUT ME</text>
			</g>
			<g display="inline">
				<g>
					
						<path fill="none" stroke="#222222" stroke-width="0.9848" stroke-linecap="round" stroke-linejoin="round" stroke-miterlimit="10" d="
						M119.191,118.493c-4.433,0-8.027-3.594-8.027-8.028s3.594-8.028,8.027-8.028"/>
					<circle fill="#222222" cx="119.191" cy="110.465" r="5.691"/>
				</g>
				<g>
					<ellipse fill="#FFFFFF" cx="119.191" cy="108.958" rx="1.788" ry="1.853"/>
					<path fill="#FFFFFF" d="M121.917,113.803c-0.113-1.459-1.289-2.607-2.726-2.607c-1.437,0-2.613,1.148-2.726,2.607H121.917z"/>
				</g>
			</g>
		</g>
		<g display="none">
			<g display="inline">
				<g>
					<rect x="111.551" y="243.221" fill="none" width="154.373" height="12.016"/>
					<text transform="matrix(1 0 0 1 111.5513 246.061)"><tspan x="0" y="0" fill="#606060" font-family="'Montserrat-Medium'" font-size="4">Lorem</tspan><tspan x="10.732" y="0" fill="#606060" font-family="'Montserrat-Medium'" font-size="4" letter-spacing="1"> </tspan><tspan x="12.607" y="0" fill="#606060" font-family="'Montserrat-Medium'" font-size="4">ipsum</tspan><tspan x="22.943" y="0" fill="#606060" font-family="'Montserrat-Medium'" font-size="4" letter-spacing="1"> </tspan><tspan x="24.819" y="0" fill="#606060" font-family="'Montserrat-Medium'" font-size="4">dolor</tspan><tspan x="33.718" y="0" fill="#606060" font-family="'Montserrat-Medium'" font-size="4" letter-spacing="1"> </tspan><tspan x="35.594" y="0" fill="#606060" font-family="'Montserrat-Medium'" font-size="4">sit</tspan><tspan x="39.439" y="0" fill="#606060" font-family="'Montserrat-Medium'" font-size="4" letter-spacing="1"> </tspan><tspan x="41.314" y="0" fill="#606060" font-family="'Montserrat-Medium'" font-size="4">amet</tspan><tspan x="49.906" y="0" fill="#606060" font-family="'Montserrat-Medium'" font-size="4" letter-spacing="1"> </tspan><tspan x="51.782" y="0" fill="#606060" font-family="'Montserrat-Medium'" font-size="4">enim,</tspan><tspan x="61.106" y="0" fill="#606060" font-family="'Montserrat-Medium'" font-size="4" letter-spacing="1"> </tspan><tspan x="62.982" y="0" fill="#606060" font-family="'Montserrat-Medium'" font-size="4">consectetur</tspan><tspan x="82.734" y="0" fill="#606060" font-family="'Montserrat-Medium'" font-size="4" letter-spacing="1"> </tspan><tspan x="84.61" y="0" fill="#606060" font-family="'Montserrat-Medium'" font-size="4">adipiscing</tspan><tspan x="101.708" y="0" fill="#606060" font-family="'Montserrat-Medium'" font-size="4" letter-spacing="1"> </tspan><tspan x="103.584" y="0" fill="#606060" font-family="'Montserrat-Medium'" font-size="4">elit,</tspan><tspan x="109.621" y="0" fill="#606060" font-family="'Montserrat-Medium'" font-size="4" letter-spacing="1"> </tspan><tspan x="111.496" y="0" fill="#606060" font-family="'Montserrat-Medium'" font-size="4">sed</tspan><tspan x="117.339" y="0" fill="#606060" font-family="'Montserrat-Medium'" font-size="4" letter-spacing="1"> </tspan><tspan x="119.215" y="0" fill="#606060" font-family="'Montserrat-Medium'" font-size="4">do</tspan><tspan x="123.667" y="0" fill="#606060" font-family="'Montserrat-Medium'" font-size="4" letter-spacing="1"> </tspan><tspan x="125.542" y="0" fill="#606060" font-family="'Montserrat-Medium'" font-size="4">eiusmod</tspan><tspan x="140.058" y="0" fill="#606060" font-family="'Montserrat-Medium'" font-size="4" letter-spacing="1"> </tspan><tspan x="141.933" y="0" fill="#606060" font-family="'Montserrat-Medium'" font-size="4">tempor </tspan><tspan x="0" y="6" fill="#606060" font-family="'Montserrat-Medium'" font-size="4">incididunt ut labore et dolore magna aliqua. </tspan></text>
				</g>
				<g>
					<g>
						<g>
							<g>
								<text transform="matrix(1 0 0 1 111.6675 239.8657)" fill="#222222" font-family="'Montserrat-Bold'" font-size="6.2225">COMPANY</text>
							</g>
						</g>
					</g>
					<g>
						<g>
							<g>
								<text transform="matrix(1 0 0 1 155.2314 239.8657)" fill="#222222" font-family="'Montserrat-Bold'" font-size="6.2225">2000-2003</text>
							</g>
						</g>
					</g>
				</g>
				<g>
					<rect x="111.551" y="268.838" fill="none" width="154.373" height="12.017"/>
					<text transform="matrix(1 0 0 1 111.5513 271.6792)"><tspan x="0" y="0" fill="#606060" font-family="'Montserrat-Medium'" font-size="4">Lorem</tspan><tspan x="10.732" y="0" fill="#606060" font-family="'Montserrat-Medium'" font-size="4" letter-spacing="1"> </tspan><tspan x="12.607" y="0" fill="#606060" font-family="'Montserrat-Medium'" font-size="4">ipsum</tspan><tspan x="22.943" y="0" fill="#606060" font-family="'Montserrat-Medium'" font-size="4" letter-spacing="1"> </tspan><tspan x="24.819" y="0" fill="#606060" font-family="'Montserrat-Medium'" font-size="4">dolor</tspan><tspan x="33.718" y="0" fill="#606060" font-family="'Montserrat-Medium'" font-size="4" letter-spacing="1"> </tspan><tspan x="35.594" y="0" fill="#606060" font-family="'Montserrat-Medium'" font-size="4">sit</tspan><tspan x="39.439" y="0" fill="#606060" font-family="'Montserrat-Medium'" font-size="4" letter-spacing="1"> </tspan><tspan x="41.314" y="0" fill="#606060" font-family="'Montserrat-Medium'" font-size="4">amet</tspan><tspan x="49.906" y="0" fill="#606060" font-family="'Montserrat-Medium'" font-size="4" letter-spacing="1"> </tspan><tspan x="51.782" y="0" fill="#606060" font-family="'Montserrat-Medium'" font-size="4">enim,</tspan><tspan x="61.106" y="0" fill="#606060" font-family="'Montserrat-Medium'" font-size="4" letter-spacing="1"> </tspan><tspan x="62.982" y="0" fill="#606060" font-family="'Montserrat-Medium'" font-size="4">consectetur</tspan><tspan x="82.734" y="0" fill="#606060" font-family="'Montserrat-Medium'" font-size="4" letter-spacing="1"> </tspan><tspan x="84.61" y="0" fill="#606060" font-family="'Montserrat-Medium'" font-size="4">adipiscing</tspan><tspan x="101.708" y="0" fill="#606060" font-family="'Montserrat-Medium'" font-size="4" letter-spacing="1"> </tspan><tspan x="103.584" y="0" fill="#606060" font-family="'Montserrat-Medium'" font-size="4">elit,</tspan><tspan x="109.621" y="0" fill="#606060" font-family="'Montserrat-Medium'" font-size="4" letter-spacing="1"> </tspan><tspan x="111.496" y="0" fill="#606060" font-family="'Montserrat-Medium'" font-size="4">sed</tspan><tspan x="117.339" y="0" fill="#606060" font-family="'Montserrat-Medium'" font-size="4" letter-spacing="1"> </tspan><tspan x="119.215" y="0" fill="#606060" font-family="'Montserrat-Medium'" font-size="4">do</tspan><tspan x="123.667" y="0" fill="#606060" font-family="'Montserrat-Medium'" font-size="4" letter-spacing="1"> </tspan><tspan x="125.542" y="0" fill="#606060" font-family="'Montserrat-Medium'" font-size="4">eiusmod</tspan><tspan x="140.058" y="0" fill="#606060" font-family="'Montserrat-Medium'" font-size="4" letter-spacing="1"> </tspan><tspan x="141.933" y="0" fill="#606060" font-family="'Montserrat-Medium'" font-size="4">tempor </tspan><tspan x="0" y="6" fill="#606060" font-family="'Montserrat-Medium'" font-size="4">incididunt ut labore et dolore magna aliqua. </tspan></text>
				</g>
				<g>
					<g>
						<g>
							<g>
								<text transform="matrix(1 0 0 1 111.6675 264.729)" fill="#222222" font-family="'Montserrat-Bold'" font-size="6.2225">COMPANY</text>
							</g>
						</g>
					</g>
					<g>
						<g>
							<g>
								<text transform="matrix(1 0 0 1 155.2314 264.729)" fill="#222222" font-family="'Montserrat-Bold'" font-size="6.2225">2004-2006</text>
							</g>
						</g>
					</g>
				</g>
				<g>
					<rect x="111.551" y="296.928" fill="none" width="154.373" height="12.016"/>
					<text transform="matrix(1 0 0 1 111.5513 299.7681)"><tspan x="0" y="0" fill="#606060" font-family="'Montserrat-Medium'" font-size="4">Lorem</tspan><tspan x="10.732" y="0" fill="#606060" font-family="'Montserrat-Medium'" font-size="4" letter-spacing="1"> </tspan><tspan x="12.607" y="0" fill="#606060" font-family="'Montserrat-Medium'" font-size="4">ipsum</tspan><tspan x="22.943" y="0" fill="#606060" font-family="'Montserrat-Medium'" font-size="4" letter-spacing="1"> </tspan><tspan x="24.819" y="0" fill="#606060" font-family="'Montserrat-Medium'" font-size="4">dolor</tspan><tspan x="33.718" y="0" fill="#606060" font-family="'Montserrat-Medium'" font-size="4" letter-spacing="1"> </tspan><tspan x="35.594" y="0" fill="#606060" font-family="'Montserrat-Medium'" font-size="4">sit</tspan><tspan x="39.439" y="0" fill="#606060" font-family="'Montserrat-Medium'" font-size="4" letter-spacing="1"> </tspan><tspan x="41.314" y="0" fill="#606060" font-family="'Montserrat-Medium'" font-size="4">amet</tspan><tspan x="49.906" y="0" fill="#606060" font-family="'Montserrat-Medium'" font-size="4" letter-spacing="1"> </tspan><tspan x="51.782" y="0" fill="#606060" font-family="'Montserrat-Medium'" font-size="4">enim,</tspan><tspan x="61.106" y="0" fill="#606060" font-family="'Montserrat-Medium'" font-size="4" letter-spacing="1"> </tspan><tspan x="62.982" y="0" fill="#606060" font-family="'Montserrat-Medium'" font-size="4">consectetur</tspan><tspan x="82.734" y="0" fill="#606060" font-family="'Montserrat-Medium'" font-size="4" letter-spacing="1"> </tspan><tspan x="84.61" y="0" fill="#606060" font-family="'Montserrat-Medium'" font-size="4">adipiscing</tspan><tspan x="101.708" y="0" fill="#606060" font-family="'Montserrat-Medium'" font-size="4" letter-spacing="1"> </tspan><tspan x="103.584" y="0" fill="#606060" font-family="'Montserrat-Medium'" font-size="4">elit,</tspan><tspan x="109.621" y="0" fill="#606060" font-family="'Montserrat-Medium'" font-size="4" letter-spacing="1"> </tspan><tspan x="111.496" y="0" fill="#606060" font-family="'Montserrat-Medium'" font-size="4">sed</tspan><tspan x="117.339" y="0" fill="#606060" font-family="'Montserrat-Medium'" font-size="4" letter-spacing="1"> </tspan><tspan x="119.215" y="0" fill="#606060" font-family="'Montserrat-Medium'" font-size="4">do</tspan><tspan x="123.667" y="0" fill="#606060" font-family="'Montserrat-Medium'" font-size="4" letter-spacing="1"> </tspan><tspan x="125.542" y="0" fill="#606060" font-family="'Montserrat-Medium'" font-size="4">eiusmod</tspan><tspan x="140.058" y="0" fill="#606060" font-family="'Montserrat-Medium'" font-size="4" letter-spacing="1"> </tspan><tspan x="141.933" y="0" fill="#606060" font-family="'Montserrat-Medium'" font-size="4">tempor </tspan><tspan x="0" y="6" fill="#606060" font-family="'Montserrat-Medium'" font-size="4">incididunt ut labore et dolore magna aliqua. </tspan></text>
				</g>
				<g>
					<g>
						<g>
							<g>
								<text transform="matrix(1 0 0 1 111.6675 292.8188)" fill="#222222" font-family="'Montserrat-Bold'" font-size="6.2225">COMPANY</text>
							</g>
						</g>
					</g>
					<g>
						<g>
							<g>
								<text transform="matrix(1 0 0 1 155.2314 292.8188)" fill="#222222" font-family="'Montserrat-Bold'" font-size="6.2225">2010-2018</text>
							</g>
						</g>
					</g>
				</g>
			</g>
			<g display="inline">
				<text transform="matrix(1 0 0 1 128.4497 224.2593)" fill="#222222" font-family="'Montserrat-Medium'" font-size="7">WORK EXPERIENCE</text>
			</g>
			<g display="inline">
				<g>
					
						<path fill="none" stroke="#222222" stroke-width="0.9848" stroke-linecap="round" stroke-linejoin="round" stroke-miterlimit="10" d="
						M119.191,228.95c-4.433,0-8.027-3.595-8.027-8.028s3.594-8.027,8.027-8.027"/>
					<circle fill="#222222" cx="119.191" cy="220.921" r="5.691"/>
				</g>
				<g>
					<ellipse fill="#FFFFFF" cx="119.191" cy="219.415" rx="1.788" ry="1.853"/>
					<path fill="#FFFFFF" d="M121.917,224.259c-0.113-1.459-1.289-2.607-2.726-2.607c-1.437,0-2.613,1.148-2.726,2.607H121.917z"/>
				</g>
			</g>
		</g>
		<g display="none">
			<g display="inline">
				<g>
					
						<path fill="none" stroke="#222222" stroke-width="0.9848" stroke-linecap="round" stroke-linejoin="round" stroke-miterlimit="10" d="
						M120.359,360.342c-4.434,0-8.027-3.594-8.027-8.027s3.594-8.027,8.027-8.027"/>
					<circle fill="#222222" cx="120.36" cy="352.315" r="5.691"/>
				</g>
				<g>
					<ellipse fill="#FFFFFF" cx="120.36" cy="350.808" rx="1.788" ry="1.853"/>
					<path fill="#FFFFFF" d="M123.085,355.653c-0.113-1.459-1.289-2.607-2.726-2.607c-1.437,0-2.613,1.148-2.726,2.607H123.085z"/>
				</g>
			</g>
			<g display="inline">
				<text transform="matrix(1 0 0 1 129.1533 355.6528)" fill="#222222" font-family="'Montserrat-Medium'" font-size="7">HOBBIES</text>
			</g>
			<g display="inline">
				<g>
					<text transform="matrix(1 0 0 1 114.5635 373.7974)" fill="#222222" font-family="'Montserrat-Medium'" font-size="5.1776">Music    Writing    Soccer    Basketball</text>
				</g>
				<circle fill="#222222" cx="132.58" cy="372.365" r="0.5"/>
				<circle fill="#222222" cx="181.913" cy="372.365" r="0.5"/>
				<circle fill="#222222" cx="158.413" cy="372.365" r="0.5"/>
			</g>
		</g>
		<g>
			<rect y="66" fill="#222222" width="282.672" height="20.143"/>
			<g>
				<polygon fill="#FFFFFF" points="167.826,66 163.457,66 142.123,86.142 146.493,86.142 				"/>
				<polygon fill="#FFFFFF" points="157.184,66 152.813,66 131.48,86.142 135.85,86.142 				"/>
				<polygon fill="#FFFFFF" points="146.541,66 142.17,66 120.837,86.142 125.207,86.142 				"/>
				<polygon fill="#FFFFFF" points="110.194,86.142 114.564,86.142 135.897,66 131.527,66 				"/>
			</g>
		</g>
		<rect x="45.207" fill="#606060" width="111.669" height="4.97"/>
		<rect fill="#222222" width="111.669" height="4.97"/>
		<rect x="119.06" y="394.805" fill="#606060" width="111.669" height="4.971"/>
		<rect x="171.035" y="394.805" fill="#222222" width="111.67" height="4.971"/>
		<g display="none">
			<g display="inline">
				<g>
					
						<path fill="none" stroke="#222222" stroke-width="0.9848" stroke-linecap="round" stroke-linejoin="round" stroke-miterlimit="10" d="
						M23.515,326.255c-4.434,0-8.027-3.594-8.027-8.027s3.594-8.027,8.027-8.027"/>
					<circle fill="#222222" cx="23.515" cy="318.228" r="5.691"/>
				</g>
				<g>
					<ellipse fill="#FFFFFF" cx="23.515" cy="316.72" rx="1.788" ry="1.854"/>
					<path fill="#FFFFFF" d="M26.241,321.566c-0.113-1.459-1.289-2.607-2.726-2.607s-2.613,1.148-2.726,2.607H26.241z"/>
				</g>
			</g>
			<g display="inline">
				<text transform="matrix(1 0 0 1 34.8203 321.4028)" fill="#222222" font-family="'Montserrat-Medium'" font-size="7">SKILLS</text>
			</g>
			<g display="inline">
				<text transform="matrix(1 0 0 1 39.9277 338.8833)"><tspan x="0" y="0" fill="#222222" font-family="'Montserrat-Medium'" font-size="5.1776">Photoshop</tspan><tspan x="0" y="9" fill="#222222" font-family="'Montserrat-Medium'" font-size="5.1776">Lightroom</tspan><tspan x="0" y="18" fill="#222222" font-family="'Montserrat-Medium'" font-size="5.1776">Indesign</tspan><tspan x="0" y="27" fill="#222222" font-family="'Montserrat-Medium'" font-size="5.1776">Illustrator</tspan></text>
			</g>
			<g display="inline">
				<polygon fill="#222222" points="19.107,335.089 19.566,336.021 20.595,336.17 19.851,336.895 20.026,337.919 19.107,337.436 
					18.188,337.919 18.363,336.895 17.619,336.17 18.647,336.021 				"/>
				<polygon fill="#222222" points="23.607,335.089 24.066,336.021 25.095,336.17 24.351,336.895 24.526,337.919 23.607,337.436 
					22.688,337.919 22.863,336.895 22.119,336.17 23.147,336.021 				"/>
				<polygon fill="#222222" points="28.107,335.089 28.566,336.021 29.595,336.17 28.851,336.895 29.026,337.919 28.107,337.436 
					27.188,337.919 27.363,336.895 26.619,336.17 27.647,336.021 				"/>
				<polygon fill="#222222" points="32.607,335.089 33.066,336.021 34.095,336.17 33.351,336.895 33.526,337.919 32.607,337.436 
					31.688,337.919 31.863,336.895 31.119,336.17 32.147,336.021 				"/>
				<polygon fill="#222222" points="37.107,335.089 37.566,336.021 38.595,336.17 37.851,336.895 38.026,337.919 37.107,337.436 
					36.188,337.919 36.363,336.895 35.619,336.17 36.647,336.021 				"/>
			</g>
			<g display="inline">
				<polygon fill="#222222" points="23.607,344.791 24.066,345.721 25.095,345.872 24.351,346.596 24.526,347.62 23.607,347.136 
					22.688,347.62 22.863,346.596 22.119,345.872 23.147,345.721 				"/>
				<polygon fill="#222222" points="28.107,344.791 28.566,345.721 29.595,345.872 28.851,346.596 29.026,347.62 28.107,347.136 
					27.188,347.62 27.363,346.596 26.619,345.872 27.647,345.721 				"/>
				<polygon fill="#222222" points="32.607,344.791 33.066,345.721 34.095,345.872 33.351,346.596 33.526,347.62 32.607,347.136 
					31.688,347.62 31.863,346.596 31.119,345.872 32.147,345.721 				"/>
				<polygon fill="#222222" points="37.107,344.791 37.566,345.721 38.595,345.872 37.851,346.596 38.026,347.62 37.107,347.136 
					36.188,347.62 36.363,346.596 35.619,345.872 36.647,345.721 				"/>
			</g>
			<g display="inline">
				<polygon fill="#222222" points="28.107,353.541 28.566,354.471 29.595,354.622 28.851,355.346 29.026,356.37 28.107,355.886 
					27.188,356.37 27.363,355.346 26.619,354.622 27.647,354.471 				"/>
				<polygon fill="#222222" points="32.607,353.541 33.066,354.471 34.095,354.622 33.351,355.346 33.526,356.37 32.607,355.886 
					31.688,356.37 31.863,355.346 31.119,354.622 32.147,354.471 				"/>
				<polygon fill="#222222" points="37.107,353.541 37.566,354.471 38.595,354.622 37.851,355.346 38.026,356.37 37.107,355.886 
					36.188,356.37 36.363,355.346 35.619,354.622 36.647,354.471 				"/>
			</g>
			<g display="inline">
				<polygon fill="#222222" points="19.107,362.707 19.566,363.638 20.595,363.788 19.851,364.513 20.026,365.537 19.107,365.053 
					18.188,365.537 18.363,364.513 17.619,363.788 18.647,363.638 				"/>
				<polygon fill="#222222" points="23.607,362.707 24.066,363.638 25.095,363.788 24.351,364.513 24.526,365.537 23.607,365.053 
					22.688,365.537 22.863,364.513 22.119,363.788 23.147,363.638 				"/>
				<polygon fill="#222222" points="28.107,362.707 28.566,363.638 29.595,363.788 28.851,364.513 29.026,365.537 28.107,365.053 
					27.188,365.537 27.363,364.513 26.619,363.788 27.647,363.638 				"/>
				<polygon fill="#222222" points="32.607,362.707 33.066,363.638 34.095,363.788 33.351,364.513 33.526,365.537 32.607,365.053 
					31.688,365.537 31.863,364.513 31.119,363.788 32.147,363.638 				"/>
				<polygon fill="#222222" points="37.107,362.707 37.566,363.638 38.595,363.788 37.851,364.513 38.026,365.537 37.107,365.053 
					36.188,365.537 36.363,364.513 35.619,363.788 36.647,363.638 				"/>
			</g>
		</g>
		<g>
			<circle fill="#222222" cx="220.108" cy="69.667" r="40.228"/>
			<g>
				<defs>
					<circle id="SVGID_3_" cx="220.108" cy="69.667" r="34.228"/>
				</defs>
				<use xlink:href="#SVGID_3_"  overflow="visible" fill="#FFFFFF"/>
				<clipPath id="SVGID_4_">
					<use xlink:href="#SVGID_3_"  overflow="visible"/>
				</clipPath>
			</g>
		</g>
	</g>
</g>
<g id="DESIGNED_BY_FREEPIK" display="none">
	<g id="XMLID_76_" display="inline">
		<g>
			<g id="XMLID_486_">
				<path id="XMLID_507_" fill="#222222" d="M72.423,435.437c-0.246,0-0.435,0.085-0.567,0.255c-0.133,0.17-0.199,0.421-0.199,0.753
					v2.393c-0.304-0.332-0.617-0.579-0.937-0.739c-0.321-0.159-0.715-0.24-1.182-0.24c-0.807,0-1.458,0.283-1.953,0.849
					c-0.494,0.565-0.742,1.355-0.742,2.369c0,0.479,0.063,0.923,0.188,1.335s0.307,0.77,0.549,1.074
					c0.241,0.305,0.526,0.539,0.857,0.703c0.33,0.164,0.689,0.246,1.078,0.246c0.293,0,0.563-0.04,0.809-0.122
					c0.248-0.08,0.477-0.199,0.689-0.356c0.212-0.155,0.426-0.358,0.644-0.607v0.16c0,0.297,0.072,0.525,0.217,0.686
					s0.328,0.24,0.549,0.24c0.226,0,0.409-0.077,0.552-0.231c0.143-0.154,0.213-0.386,0.213-0.694v-7.146
					c0-0.305-0.066-0.534-0.199-0.69C72.856,435.515,72.668,435.437,72.423,435.437z M71.357,442.278
					c-0.141,0.306-0.329,0.533-0.563,0.682c-0.236,0.148-0.496,0.223-0.781,0.223c-0.28,0-0.539-0.078-0.777-0.236
					c-0.237-0.154-0.424-0.387-0.561-0.695c-0.136-0.31-0.205-0.683-0.205-1.122c0-0.415,0.063-0.78,0.193-1.096
					c0.128-0.314,0.31-0.556,0.543-0.724s0.499-0.252,0.795-0.252c0.285,0,0.547,0.082,0.787,0.245
					c0.239,0.165,0.429,0.402,0.569,0.713c0.141,0.311,0.21,0.682,0.21,1.113C71.568,441.586,71.499,441.97,71.357,442.278z"/>
				<path id="XMLID_504_" fill="#222222" d="M79.788,441.357c0.233-0.122,0.35-0.385,0.35-0.793c0-0.438-0.113-0.87-0.338-1.294
					c-0.225-0.423-0.564-0.769-1.019-1.035c-0.453-0.268-0.996-0.399-1.628-0.399c-0.487,0-0.93,0.077-1.33,0.233
					c-0.4,0.156-0.737,0.381-1.01,0.674c-0.272,0.293-0.48,0.644-0.623,1.054c-0.143,0.409-0.213,0.853-0.213,1.332
					c0,1.017,0.289,1.822,0.867,2.415c0.577,0.593,1.387,0.891,2.427,0.891c0.456,0,0.858-0.06,1.207-0.178
					c0.352-0.12,0.641-0.269,0.874-0.448c0.231-0.181,0.404-0.368,0.519-0.564c0.115-0.196,0.172-0.366,0.172-0.514
					c0-0.166-0.052-0.294-0.155-0.386c-0.103-0.09-0.237-0.137-0.403-0.137c-0.154,0-0.273,0.036-0.356,0.107
					c-0.203,0.189-0.366,0.34-0.492,0.451s-0.265,0.216-0.416,0.313c-0.15,0.098-0.305,0.167-0.466,0.214
					c-0.16,0.044-0.337,0.067-0.531,0.067c-0.289,0-0.553-0.07-0.792-0.213c-0.239-0.143-0.432-0.354-0.576-0.636
					c-0.145-0.281-0.219-0.605-0.222-0.974h3.168C79.226,441.538,79.555,441.477,79.788,441.357z M75.633,440.619
					c0.055-0.547,0.212-0.96,0.472-1.238c0.259-0.28,0.59-0.418,0.994-0.418c0.423,0,0.764,0.137,1.024,0.411
					c0.259,0.275,0.409,0.69,0.448,1.245H75.633z"/>
				<path id="XMLID_503_" fill="#222222" d="M85.214,440.92c-0.319-0.17-0.729-0.316-1.231-0.439
					c-0.424-0.104-0.756-0.19-0.997-0.261c-0.242-0.07-0.434-0.161-0.576-0.271c-0.143-0.108-0.213-0.247-0.213-0.418
					c0-0.187,0.097-0.342,0.291-0.465c0.194-0.126,0.437-0.188,0.73-0.188c0.286,0,0.511,0.047,0.677,0.142
					c0.166,0.096,0.31,0.223,0.433,0.381c0.151,0.189,0.284,0.331,0.401,0.426c0.116,0.096,0.258,0.144,0.424,0.144
					c0.23,0,0.407-0.061,0.532-0.178c0.124-0.119,0.187-0.271,0.187-0.457c0-0.171-0.058-0.345-0.175-0.523
					c-0.116-0.178-0.286-0.34-0.51-0.485c-0.223-0.146-0.502-0.265-0.837-0.351c-0.333-0.088-0.71-0.131-1.13-0.131
					c-0.535,0-0.99,0.085-1.367,0.259c-0.378,0.172-0.665,0.402-0.859,0.69c-0.194,0.289-0.291,0.597-0.291,0.92
					c0,0.364,0.105,0.671,0.315,0.921c0.21,0.249,0.489,0.45,0.839,0.602c0.351,0.152,0.804,0.298,1.362,0.436
					c0.494,0.12,0.849,0.244,1.065,0.375c0.216,0.131,0.323,0.338,0.323,0.622c0,0.187-0.104,0.352-0.311,0.497
					c-0.208,0.144-0.474,0.216-0.798,0.216c-0.4,0-0.715-0.07-0.947-0.213c-0.231-0.144-0.431-0.357-0.597-0.647
					c-0.082-0.149-0.169-0.267-0.261-0.351c-0.091-0.082-0.221-0.124-0.39-0.124c-0.194,0-0.355,0.063-0.481,0.19
					c-0.128,0.126-0.19,0.278-0.19,0.456c0,0.27,0.099,0.537,0.296,0.805c0.198,0.267,0.505,0.489,0.92,0.667
					c0.415,0.179,0.914,0.268,1.495,0.268c0.609,0,1.127-0.082,1.552-0.246s0.747-0.405,0.964-0.725
					c0.218-0.318,0.326-0.701,0.326-1.148c0-0.297-0.082-0.561-0.246-0.792C85.774,441.292,85.532,441.09,85.214,440.92z"/>
				<path id="XMLID_502_" fill="#222222" d="M87.822,437.846c-0.238,0-0.431,0.081-0.579,0.243
					c-0.149,0.162-0.222,0.404-0.222,0.724v4.636c0,0.316,0.073,0.56,0.222,0.73c0.148,0.17,0.341,0.255,0.579,0.255
					s0.433-0.083,0.588-0.249c0.154-0.166,0.231-0.412,0.231-0.736v-4.683c0-0.288-0.078-0.515-0.231-0.677
					C88.255,437.927,88.06,437.846,87.822,437.846z"/>
				<path id="XMLID_501_" fill="#222222" d="M87.84,435.507c-0.217,0-0.409,0.073-0.573,0.223c-0.165,0.149-0.246,0.337-0.246,0.567
					c0,0.254,0.08,0.449,0.24,0.588c0.16,0.138,0.353,0.208,0.579,0.208c0.217,0,0.405-0.071,0.563-0.212
					c0.158-0.14,0.238-0.335,0.238-0.584c0-0.258-0.081-0.453-0.244-0.588C88.236,435.575,88.05,435.507,87.84,435.507z"/>
				<path id="XMLID_498_" fill="#222222" d="M94.962,437.846c-0.217,0-0.396,0.077-0.535,0.231
					c-0.139,0.154-0.208,0.372-0.208,0.652v0.221c-0.289-0.376-0.602-0.651-0.938-0.829c-0.337-0.175-0.734-0.264-1.193-0.264
					c-0.384,0-0.736,0.068-1.056,0.204c-0.321,0.138-0.604,0.34-0.849,0.609c-0.245,0.269-0.433,0.599-0.566,0.991
					c-0.133,0.392-0.199,0.831-0.199,1.317c0,0.653,0.108,1.228,0.327,1.728c0.217,0.498,0.529,0.886,0.934,1.163
					c0.406,0.276,0.88,0.415,1.422,0.415c0.45,0,0.839-0.091,1.166-0.272c0.327-0.182,0.614-0.447,0.864-0.797
					c-0.008,0.531-0.02,0.916-0.036,1.155c-0.016,0.24-0.07,0.465-0.164,0.674c-0.093,0.209-0.255,0.373-0.486,0.489
					c-0.231,0.117-0.557,0.176-0.977,0.176c-0.205,0-0.387-0.02-0.545-0.057c-0.159-0.038-0.294-0.095-0.406-0.171
					c-0.112-0.078-0.216-0.171-0.309-0.28c-0.093-0.108-0.183-0.217-0.27-0.323c-0.178-0.21-0.386-0.314-0.624-0.314
					c-0.189,0-0.353,0.062-0.486,0.188c-0.135,0.123-0.202,0.284-0.202,0.482c0,0.262,0.119,0.516,0.356,0.764
					c0.238,0.247,0.576,0.448,1.014,0.605c0.439,0.155,0.938,0.233,1.496,0.233c0.609,0,1.119-0.061,1.528-0.184
					c0.409-0.122,0.741-0.311,0.994-0.563c0.253-0.254,0.438-0.574,0.551-0.961c0.115-0.389,0.173-0.852,0.173-1.39v-4.706
					c0-0.384-0.051-0.678-0.155-0.882C95.482,437.949,95.274,437.846,94.962,437.846z M93.936,442.211
					c-0.151,0.291-0.346,0.508-0.586,0.653c-0.239,0.144-0.493,0.217-0.762,0.217c-0.455,0-0.826-0.168-1.113-0.505
					c-0.287-0.336-0.431-0.834-0.431-1.49c0-0.648,0.139-1.149,0.418-1.501c0.279-0.352,0.649-0.528,1.113-0.528
					c0.475,0,0.857,0.184,1.148,0.553c0.291,0.367,0.437,0.882,0.437,1.542C94.161,441.568,94.085,441.92,93.936,442.211z"/>
				<path id="XMLID_497_" fill="#222222" d="M102.314,438.914c-0.165-0.339-0.417-0.602-0.753-0.788
					c-0.337-0.187-0.718-0.279-1.146-0.279c-0.439,0-0.828,0.088-1.166,0.264c-0.338,0.177-0.65,0.452-0.935,0.828v-0.195
					c0-0.193-0.034-0.358-0.104-0.493c-0.069-0.134-0.162-0.234-0.276-0.302c-0.114-0.068-0.244-0.102-0.387-0.102
					c-0.233,0-0.417,0.076-0.552,0.229c-0.134,0.152-0.201,0.383-0.201,0.691v4.683c0,0.316,0.076,0.56,0.226,0.73
					c0.15,0.17,0.342,0.255,0.576,0.255c0.241,0,0.438-0.082,0.59-0.246s0.228-0.411,0.228-0.739v-2.03
					c0-0.66,0.04-1.11,0.119-1.353c0.11-0.3,0.284-0.537,0.522-0.71c0.237-0.172,0.5-0.258,0.788-0.258
					c0.444,0,0.74,0.143,0.888,0.425s0.223,0.691,0.223,1.226v2.7c0,0.316,0.074,0.56,0.226,0.73c0.15,0.17,0.346,0.255,0.587,0.255
					c0.238,0,0.431-0.083,0.578-0.249c0.149-0.166,0.224-0.412,0.224-0.736v-3.016c0-0.356-0.017-0.647-0.048-0.878
					C102.491,439.327,102.421,439.112,102.314,438.914z"/>
				<path id="XMLID_494_" fill="#222222" d="M109.157,441.357c0.233-0.122,0.35-0.385,0.35-0.793c0-0.438-0.113-0.87-0.338-1.294
					c-0.226-0.423-0.565-0.769-1.019-1.035c-0.453-0.268-0.996-0.399-1.628-0.399c-0.487,0-0.93,0.077-1.33,0.233
					c-0.4,0.156-0.736,0.381-1.009,0.674c-0.273,0.293-0.481,0.644-0.624,1.054c-0.142,0.409-0.213,0.853-0.213,1.332
					c0,1.017,0.289,1.822,0.866,2.415c0.578,0.593,1.387,0.891,2.428,0.891c0.455,0,0.858-0.06,1.208-0.178
					c0.351-0.12,0.64-0.269,0.872-0.448c0.232-0.181,0.405-0.368,0.52-0.564c0.114-0.196,0.172-0.366,0.172-0.514
					c0-0.166-0.051-0.294-0.154-0.386c-0.103-0.09-0.238-0.137-0.404-0.137c-0.154,0-0.273,0.036-0.356,0.107
					c-0.201,0.189-0.366,0.34-0.492,0.451c-0.128,0.111-0.266,0.216-0.416,0.313c-0.151,0.098-0.307,0.167-0.466,0.214
					c-0.161,0.044-0.338,0.067-0.532,0.067c-0.289,0-0.553-0.07-0.792-0.213s-0.431-0.354-0.575-0.636
					c-0.145-0.281-0.219-0.605-0.223-0.974h3.169C108.596,441.538,108.924,441.477,109.157,441.357z M105.002,440.619
					c0.056-0.547,0.212-0.96,0.471-1.238c0.259-0.28,0.591-0.418,0.995-0.418c0.423,0,0.765,0.137,1.024,0.411
					c0.259,0.275,0.409,0.69,0.448,1.245H105.002z"/>
				<path id="XMLID_491_" fill="#222222" d="M115.542,435.437c-0.245,0-0.435,0.085-0.567,0.255s-0.199,0.421-0.199,0.753v2.393
					c-0.304-0.332-0.617-0.579-0.938-0.739c-0.32-0.159-0.714-0.24-1.181-0.24c-0.808,0-1.458,0.283-1.953,0.849
					c-0.495,0.565-0.741,1.355-0.741,2.369c0,0.479,0.062,0.923,0.187,1.335s0.308,0.77,0.549,1.074
					c0.241,0.305,0.527,0.539,0.857,0.703s0.689,0.246,1.077,0.246c0.293,0,0.563-0.04,0.81-0.122
					c0.248-0.08,0.476-0.199,0.688-0.356c0.211-0.155,0.426-0.358,0.644-0.607v0.16c0,0.297,0.072,0.525,0.217,0.686
					c0.145,0.16,0.328,0.24,0.549,0.24c0.226,0,0.41-0.077,0.552-0.231c0.143-0.154,0.213-0.386,0.213-0.694v-7.146
					c0-0.305-0.065-0.534-0.199-0.69C115.977,435.515,115.788,435.437,115.542,435.437z M114.477,442.278
					c-0.14,0.306-0.328,0.533-0.564,0.682c-0.235,0.148-0.495,0.223-0.781,0.223c-0.281,0-0.54-0.078-0.776-0.236
					c-0.238-0.154-0.425-0.387-0.562-0.695c-0.137-0.31-0.205-0.683-0.205-1.122c0-0.415,0.064-0.78,0.193-1.096
					c0.129-0.314,0.31-0.556,0.543-0.724c0.233-0.168,0.5-0.252,0.795-0.252c0.285,0,0.547,0.082,0.787,0.245
					c0.239,0.165,0.43,0.402,0.57,0.713s0.21,0.682,0.21,1.113C114.688,441.586,114.617,441.97,114.477,442.278z"/>
				<path id="XMLID_488_" fill="#222222" d="M124.922,438.241c-0.406-0.255-0.877-0.383-1.416-0.383
					c-0.467,0-0.859,0.084-1.175,0.252c-0.317,0.168-0.627,0.411-0.932,0.728v-2.476c0-0.297-0.068-0.524-0.202-0.686
					c-0.135-0.159-0.326-0.239-0.576-0.239c-0.237,0-0.423,0.084-0.555,0.252c-0.133,0.168-0.198,0.416-0.198,0.744v7.075
					c0,0.305,0.068,0.535,0.205,0.692c0.136,0.156,0.319,0.233,0.549,0.233c0.226,0,0.412-0.077,0.558-0.233
					c0.146-0.157,0.22-0.388,0.22-0.692v-0.16c0.178,0.205,0.322,0.36,0.43,0.463c0.109,0.104,0.241,0.203,0.395,0.3
					c0.154,0.098,0.341,0.175,0.561,0.234s0.454,0.089,0.704,0.089c0.407,0,0.781-0.082,1.119-0.246s0.626-0.397,0.864-0.698
					c0.237-0.3,0.418-0.655,0.543-1.064c0.125-0.41,0.187-0.859,0.187-1.35c0-0.665-0.112-1.241-0.336-1.725
					C125.641,438.867,125.327,438.497,124.922,438.241z M124.132,442.651c-0.295,0.354-0.646,0.531-1.053,0.531
					c-0.479,0-0.866-0.174-1.161-0.521c-0.295-0.346-0.442-0.841-0.442-1.486c0-0.439,0.069-0.818,0.208-1.136
					c0.138-0.319,0.328-0.563,0.57-0.73c0.24-0.168,0.516-0.252,0.825-0.252c0.3,0,0.563,0.084,0.79,0.252
					c0.225,0.168,0.399,0.406,0.521,0.716c0.123,0.308,0.184,0.677,0.184,1.104C124.574,441.79,124.426,442.296,124.132,442.651z"/>
				<path id="XMLID_487_" fill="#222222" d="M131.865,437.944c-0.112-0.065-0.229-0.098-0.353-0.098
					c-0.171,0-0.302,0.029-0.395,0.09c-0.093,0.058-0.181,0.173-0.264,0.344c-0.083,0.17-0.176,0.406-0.279,0.705l-1.3,3.71
					l-1.371-3.988c-0.091-0.277-0.195-0.489-0.314-0.638c-0.119-0.148-0.295-0.223-0.529-0.223c-0.135,0-0.264,0.035-0.389,0.107
					c-0.125,0.07-0.222,0.166-0.294,0.285c-0.071,0.117-0.107,0.246-0.107,0.385c0,0.131,0.062,0.341,0.184,0.629l1.995,5.021
					l-0.148,0.362c-0.111,0.265-0.208,0.466-0.294,0.601c-0.085,0.139-0.181,0.234-0.288,0.289c-0.107,0.056-0.254,0.084-0.44,0.084
					c-0.075,0-0.164-0.013-0.266-0.036c-0.083-0.024-0.168-0.036-0.256-0.036c-0.221,0-0.388,0.051-0.5,0.151
					c-0.113,0.101-0.169,0.245-0.169,0.431c0,0.272,0.119,0.461,0.356,0.564c0.237,0.103,0.593,0.153,1.068,0.153
					c0.487,0,0.873-0.073,1.161-0.223c0.287-0.147,0.517-0.361,0.691-0.638c0.174-0.277,0.353-0.659,0.535-1.146l2.113-5.531
					c0.051-0.143,0.095-0.283,0.13-0.421c0.037-0.14,0.061-0.246,0.078-0.321c0-0.123-0.032-0.239-0.093-0.35
					C132.065,438.097,131.978,438.009,131.865,437.944z"/>
			</g>
			<g id="XMLID_450_">
				<g id="XMLID_465_">
					<path id="XMLID_485_" fill="#222222" d="M154.266,435.432c-0.533,0-0.954,0.068-1.26,0.204
						c-0.308,0.137-0.527,0.354-0.654,0.652c-0.13,0.301-0.191,0.702-0.191,1.211v0.487h-0.387c-0.543,0-0.814,0.191-0.814,0.582
						c0,0.174,0.065,0.315,0.196,0.423c0.132,0.111,0.315,0.164,0.559,0.164h0.446v4.294c0,0.318,0.074,0.563,0.228,0.729
						c0.154,0.17,0.344,0.254,0.573,0.254c0.243,0,0.438-0.084,0.589-0.254c0.155-0.167,0.23-0.411,0.23-0.729v-4.294h0.396
						c0.291,0,0.517-0.035,0.681-0.107c0.166-0.071,0.245-0.24,0.245-0.503c0-0.373-0.307-0.559-0.926-0.559h-0.396V437.6
						c0-0.321,0.043-0.567,0.122-0.739c0.087-0.172,0.273-0.26,0.565-0.26c0.107,0,0.241,0.014,0.39,0.034
						c0.155,0.026,0.268,0.038,0.33,0.038c0.134,0,0.252-0.055,0.348-0.16c0.102-0.107,0.15-0.235,0.15-0.385
						C155.686,435.662,155.215,435.432,154.266,435.432z"/>
					<path id="XMLID_484_" fill="#222222" d="M159.425,438.098c-0.32-0.171-0.647-0.255-0.99-0.255c-0.342,0-0.61,0.084-0.818,0.255
						c-0.202,0.171-0.4,0.421-0.592,0.755c-0.015-0.334-0.08-0.584-0.199-0.755s-0.313-0.255-0.583-0.255
						c-0.525,0-0.788,0.364-0.788,1.093v4.514c0,0.323,0.078,0.568,0.226,0.732c0.149,0.169,0.34,0.251,0.579,0.251
						c0.236,0,0.432-0.081,0.586-0.247c0.15-0.163,0.233-0.41,0.233-0.736v-1.355c0-0.486,0.014-0.899,0.045-1.238
						c0.033-0.337,0.09-0.631,0.17-0.878c0.084-0.243,0.201-0.425,0.353-0.554c0.149-0.122,0.345-0.186,0.582-0.186
						c0.172,0,0.374,0.036,0.602,0.107c0.227,0.073,0.371,0.112,0.434,0.112c0.157,0,0.304-0.063,0.44-0.194
						c0.135-0.126,0.204-0.292,0.204-0.488C159.907,438.496,159.747,438.269,159.425,438.098z"/>
					<path id="XMLID_481_" fill="#222222" d="M165.512,441.355c0.233-0.122,0.351-0.385,0.351-0.791c0-0.44-0.112-0.87-0.339-1.296
						c-0.222-0.423-0.565-0.77-1.018-1.033c-0.453-0.27-0.997-0.403-1.629-0.403c-0.488,0-0.931,0.078-1.329,0.232
						c-0.402,0.157-0.735,0.381-1.008,0.675c-0.275,0.295-0.484,0.644-0.624,1.055c-0.145,0.41-0.218,0.854-0.218,1.333
						c0,1.017,0.293,1.823,0.87,2.418c0.576,0.593,1.385,0.889,2.429,0.889c0.453,0,0.857-0.061,1.207-0.179
						c0.349-0.117,0.64-0.269,0.874-0.446c0.232-0.182,0.404-0.368,0.521-0.566c0.111-0.194,0.167-0.365,0.167-0.512
						c0-0.167-0.048-0.294-0.152-0.386c-0.104-0.093-0.237-0.139-0.405-0.139c-0.152,0-0.271,0.038-0.355,0.108
						c-0.202,0.189-0.367,0.34-0.493,0.449c-0.128,0.113-0.264,0.218-0.415,0.313c-0.15,0.097-0.307,0.17-0.466,0.213
						c-0.16,0.048-0.336,0.069-0.531,0.069c-0.29,0-0.552-0.07-0.792-0.212c-0.24-0.145-0.431-0.356-0.578-0.636
						c-0.145-0.28-0.216-0.606-0.222-0.974h3.171C164.951,441.537,165.278,441.476,165.512,441.355z M161.356,440.616
						c0.055-0.546,0.213-0.957,0.472-1.236c0.26-0.28,0.592-0.418,0.995-0.418c0.426,0,0.764,0.136,1.024,0.412
						c0.261,0.273,0.407,0.688,0.446,1.242H161.356z"/>
					<path id="XMLID_478_" fill="#222222" d="M172.252,441.355c0.231-0.122,0.352-0.385,0.352-0.791c0-0.44-0.116-0.87-0.341-1.296
						c-0.222-0.423-0.563-0.77-1.013-1.033c-0.46-0.27-1.003-0.403-1.634-0.403c-0.486,0-0.932,0.078-1.33,0.232
						c-0.4,0.157-0.736,0.381-1.009,0.675c-0.273,0.295-0.48,0.644-0.622,1.055c-0.145,0.41-0.218,0.854-0.218,1.333
						c0,1.017,0.291,1.823,0.868,2.418c0.58,0.593,1.387,0.889,2.43,0.889c0.453,0,0.859-0.061,1.208-0.179
						c0.348-0.117,0.641-0.269,0.872-0.446c0.234-0.182,0.408-0.368,0.519-0.566c0.116-0.194,0.171-0.365,0.171-0.512
						c0-0.167-0.047-0.294-0.15-0.386c-0.104-0.093-0.238-0.139-0.406-0.139c-0.151,0-0.271,0.038-0.355,0.108
						c-0.202,0.189-0.367,0.34-0.492,0.449c-0.127,0.113-0.264,0.218-0.415,0.313c-0.152,0.097-0.307,0.17-0.469,0.213
						c-0.157,0.048-0.335,0.069-0.527,0.069c-0.291,0-0.556-0.07-0.795-0.212c-0.238-0.145-0.431-0.356-0.575-0.636
						c-0.144-0.28-0.218-0.606-0.222-0.974h3.17C171.69,441.537,172.018,441.476,172.252,441.355z M168.098,440.616
						c0.053-0.546,0.211-0.957,0.47-1.236c0.261-0.28,0.592-0.418,0.995-0.418c0.425,0,0.764,0.136,1.026,0.412
						c0.257,0.273,0.407,0.688,0.446,1.242H168.098z"/>
					<path id="XMLID_475_" fill="#222222" d="M178.263,438.241c-0.42-0.257-0.883-0.387-1.379-0.387c-0.415,0-0.79,0.09-1.114,0.268
						c-0.331,0.176-0.648,0.452-0.952,0.827v-0.194c0-0.297-0.071-0.52-0.218-0.678c-0.144-0.155-0.329-0.233-0.56-0.233
						c-0.233,0-0.419,0.078-0.554,0.228c-0.133,0.154-0.199,0.382-0.199,0.691v6.995c0,0.354,0.051,0.62,0.146,0.807
						c0.102,0.183,0.301,0.274,0.607,0.274c0.517,0,0.777-0.358,0.777-1.068v-2.434c0.286,0.358,0.586,0.635,0.9,0.817
						c0.313,0.187,0.704,0.279,1.166,0.279c0.385,0,0.741-0.076,1.079-0.228c0.334-0.152,0.622-0.372,0.868-0.653
						c0.245-0.283,0.44-0.632,0.58-1.05s0.21-0.878,0.21-1.376c0-0.677-0.122-1.261-0.366-1.758
						C179.012,438.875,178.682,438.499,178.263,438.241z M177.786,442.244c-0.137,0.313-0.32,0.546-0.552,0.704
						c-0.229,0.153-0.48,0.232-0.748,0.232c-0.454,0-0.828-0.179-1.133-0.536c-0.307-0.358-0.46-0.862-0.46-1.504
						c0-0.687,0.155-1.204,0.462-1.558c0.307-0.35,0.685-0.527,1.131-0.527c0.281,0,0.54,0.083,0.77,0.247
						c0.229,0.163,0.411,0.397,0.542,0.705c0.13,0.306,0.196,0.674,0.196,1.101C177.994,441.551,177.925,441.93,177.786,442.244z"/>
					<path id="XMLID_474_" fill="#222222" d="M181.236,437.843c-0.238,0-0.428,0.079-0.58,0.244
						c-0.146,0.163-0.222,0.403-0.222,0.722v4.642c0,0.313,0.076,0.555,0.222,0.729c0.152,0.17,0.342,0.254,0.58,0.254
						s0.432-0.082,0.588-0.251c0.154-0.164,0.231-0.409,0.231-0.731v-4.688c0-0.286-0.077-0.512-0.231-0.675
						C181.668,437.922,181.475,437.843,181.236,437.843z"/>
					<path id="XMLID_473_" fill="#222222" d="M181.253,435.502c-0.217,0-0.407,0.076-0.571,0.223
						c-0.166,0.149-0.247,0.339-0.247,0.568c0,0.253,0.08,0.447,0.242,0.586c0.158,0.138,0.35,0.209,0.576,0.209
						c0.22,0,0.408-0.071,0.566-0.21c0.157-0.14,0.236-0.335,0.236-0.585c0-0.257-0.082-0.454-0.244-0.591
						C181.65,435.57,181.466,435.502,181.253,435.502z"/>
					<path id="XMLID_472_" fill="#222222" d="M188.594,442.873l-1.662-2.614l0.861-0.788c0.438-0.396,0.658-0.714,0.658-0.951
						c0-0.192-0.068-0.354-0.2-0.483c-0.138-0.128-0.306-0.192-0.509-0.192c-0.169,0-0.313,0.043-0.432,0.13
						c-0.121,0.086-0.29,0.251-0.517,0.486l-1.822,1.913v-3.933c0-0.329-0.074-0.581-0.221-0.751
						c-0.147-0.171-0.344-0.257-0.593-0.257c-0.256,0-0.457,0.093-0.596,0.283c-0.136,0.188-0.207,0.462-0.207,0.82v6.914
						c0,0.323,0.073,0.568,0.215,0.732c0.141,0.169,0.339,0.251,0.588,0.251c0.213,0,0.405-0.084,0.566-0.254
						c0.164-0.167,0.247-0.406,0.247-0.719v-1.29l0.88-0.83l1.428,2.353c0.182,0.278,0.329,0.472,0.436,0.58
						c0.106,0.109,0.261,0.16,0.459,0.16c0.226,0,0.412-0.073,0.553-0.222c0.142-0.15,0.214-0.351,0.214-0.609
						c0-0.089-0.029-0.189-0.082-0.288C188.806,443.212,188.715,443.068,188.594,442.873z"/>
					<path id="XMLID_471_" fill="#222222" d="M190.786,442.646c-0.251,0-0.459,0.087-0.63,0.262
						c-0.171,0.173-0.257,0.381-0.257,0.622c0,0.287,0.091,0.51,0.269,0.665c0.179,0.159,0.389,0.238,0.633,0.238
						c0.237,0,0.444-0.079,0.624-0.241c0.175-0.157,0.264-0.38,0.264-0.662c0-0.243-0.089-0.454-0.264-0.626
						C191.245,442.733,191.034,442.646,190.786,442.646z"/>
					<path id="XMLID_470_" fill="#222222" d="M198.171,441.719c-0.166,0-0.308,0.055-0.422,0.156
						c-0.113,0.104-0.219,0.245-0.318,0.427c-0.177,0.31-0.381,0.538-0.616,0.689c-0.23,0.149-0.509,0.225-0.834,0.225
						c-0.24,0-0.463-0.045-0.666-0.141c-0.201-0.094-0.372-0.229-0.516-0.409s-0.252-0.397-0.325-0.652
						c-0.075-0.256-0.114-0.537-0.114-0.842c0-0.646,0.146-1.161,0.439-1.533c0.293-0.375,0.682-0.562,1.158-0.562
						c0.333,0,0.606,0.075,0.82,0.227c0.219,0.147,0.425,0.376,0.623,0.674c0.108,0.158,0.209,0.27,0.299,0.339
						s0.201,0.104,0.338,0.104c0.202,0,0.377-0.068,0.524-0.203c0.144-0.135,0.214-0.3,0.214-0.491c0-0.192-0.063-0.397-0.192-0.617
						c-0.127-0.218-0.314-0.424-0.556-0.62c-0.245-0.192-0.54-0.353-0.891-0.474c-0.353-0.124-0.736-0.185-1.156-0.185
						c-0.674,0-1.26,0.139-1.747,0.419c-0.485,0.278-0.858,0.673-1.113,1.183c-0.259,0.511-0.387,1.098-0.387,1.765
						c0,0.981,0.281,1.765,0.841,2.35c0.563,0.582,1.345,0.876,2.349,0.876c0.469,0,0.894-0.065,1.269-0.191
						c0.377-0.126,0.688-0.295,0.935-0.503c0.248-0.207,0.434-0.425,0.553-0.655c0.122-0.229,0.183-0.446,0.183-0.646
						c0-0.169-0.066-0.331-0.198-0.481C198.534,441.796,198.369,441.719,198.171,441.719z"/>
					<path id="XMLID_467_" fill="#222222" d="M204.982,438.756c-0.288-0.291-0.628-0.518-1.026-0.675
						c-0.4-0.16-0.847-0.238-1.336-0.238c-0.482,0-0.924,0.078-1.326,0.233c-0.398,0.158-0.737,0.38-1.02,0.669
						c-0.281,0.288-0.498,0.637-0.648,1.045c-0.146,0.408-0.225,0.857-0.225,1.349c0,0.485,0.076,0.93,0.22,1.332
						c0.151,0.401,0.369,0.75,0.657,1.048c0.284,0.292,0.626,0.521,1.016,0.676c0.393,0.159,0.835,0.239,1.326,0.239
						c0.492,0,0.937-0.08,1.336-0.234c0.394-0.157,0.735-0.382,1.02-0.675c0.286-0.291,0.502-0.642,0.656-1.05
						c0.146-0.408,0.222-0.854,0.222-1.336c0-0.488-0.075-0.932-0.221-1.339C205.484,439.399,205.269,439.052,204.982,438.756z
						 M203.791,442.671c-0.29,0.373-0.682,0.558-1.171,0.558c-0.324,0-0.604-0.086-0.846-0.253c-0.24-0.168-0.424-0.409-0.554-0.729
						c-0.129-0.316-0.193-0.685-0.193-1.108c0-0.428,0.066-0.803,0.197-1.124c0.13-0.321,0.314-0.563,0.556-0.728
						c0.242-0.163,0.521-0.245,0.84-0.245c0.489,0,0.881,0.182,1.171,0.555c0.289,0.367,0.436,0.881,0.436,1.542
						C204.227,441.79,204.08,442.302,203.791,442.671z"/>
					<path id="XMLID_466_" fill="#222222" d="M214.905,438.117c-0.32-0.173-0.705-0.263-1.146-0.263
						c-0.38,0-0.726,0.081-1.038,0.241c-0.313,0.161-0.606,0.408-0.882,0.738c-0.191-0.326-0.431-0.572-0.725-0.735
						c-0.292-0.162-0.642-0.244-1.048-0.244c-0.395,0-0.748,0.079-1.07,0.241c-0.319,0.156-0.62,0.403-0.903,0.738v-0.153
						c0-0.261-0.073-0.466-0.221-0.616c-0.15-0.145-0.335-0.221-0.558-0.221c-0.227,0-0.412,0.078-0.556,0.238
						c-0.14,0.157-0.21,0.389-0.21,0.694v4.636c0,0.337,0.078,0.592,0.235,0.765c0.156,0.171,0.357,0.258,0.604,0.258
						c0.248,0,0.447-0.087,0.603-0.258c0.149-0.173,0.227-0.428,0.227-0.765v-2.188c0-0.683,0.086-1.206,0.253-1.566
						c0.169-0.369,0.517-0.55,1.048-0.55c0.264,0,0.459,0.071,0.582,0.22c0.121,0.142,0.197,0.33,0.226,0.552
						c0.027,0.226,0.04,0.544,0.04,0.952v2.581c0,0.342,0.078,0.594,0.232,0.768c0.148,0.17,0.35,0.255,0.595,0.255
						c0.254,0,0.454-0.085,0.61-0.255c0.156-0.174,0.23-0.426,0.23-0.768v-2.153c0-0.694,0.063-1.178,0.178-1.452
						c0.109-0.209,0.259-0.383,0.451-0.508c0.191-0.125,0.395-0.191,0.608-0.191c0.264,0,0.463,0.071,0.596,0.215
						c0.128,0.142,0.209,0.318,0.238,0.528s0.044,0.486,0.044,0.837v2.725c0,0.337,0.078,0.592,0.234,0.765
						c0.157,0.171,0.356,0.258,0.604,0.258c0.252,0,0.458-0.085,0.611-0.255c0.154-0.174,0.229-0.426,0.229-0.768v-3.163
						c0-0.629-0.068-1.091-0.206-1.386C215.464,438.541,215.225,438.291,214.905,438.117z"/>
				</g>
				<g id="XMLID_451_">
					<path id="XMLID_464_" fill="#222222" d="M136.609,440.747c-0.001-0.003-0.001-0.006-0.001-0.011
						C136.608,440.741,136.608,440.744,136.609,440.747z"/>
					<path id="XMLID_463_" fill="#222222" d="M136.691,441.264C136.692,441.264,136.692,441.264,136.691,441.264
						c-0.029-0.146-0.054-0.294-0.072-0.438C136.637,440.972,136.662,441.12,136.691,441.264z"/>
					<path id="XMLID_462_" fill="#222222" d="M137.227,442.769c-0.003-0.007-0.006-0.014-0.01-0.021
						C137.221,442.755,137.224,442.762,137.227,442.769z"/>
					<path id="XMLID_461_" fill="#222222" d="M137.176,442.668c-0.014-0.027-0.027-0.056-0.041-0.083
						C137.148,442.615,137.162,442.641,137.176,442.668z"/>
					<path id="XMLID_460_" fill="#222222" d="M136.841,441.844c0.08,0.25,0.175,0.492,0.286,0.724
						c-0.113-0.236-0.206-0.479-0.284-0.724H136.841z"/>
					<path id="XMLID_459_" fill="#222222" d="M142.072,433.985l-0.076-0.26c0.299-0.063,0.523-0.329,0.523-0.646
						c0-0.363-0.296-0.659-0.66-0.659c-0.365,0-0.66,0.296-0.66,0.659c0,0.317,0.225,0.584,0.522,0.646l0.084,0.289
						c-1.021,0.141-1.834,0.539-1.834,0.539l0.144,0.44c0.617-0.206,1.153-0.331,1.64-0.383c0.476-0.051,0.833-0.073,1.125-0.073
						c0.313,0,0.545,0.025,0.81,0.069l0.075-0.476C143.766,434.131,143.033,433.906,142.072,433.985z"/>
					<path id="XMLID_458_" fill="#222222" d="M136.789,436.492c-0.017,0.023-0.497,0.465-0.875,1.279
						c-0.016-0.025-0.035-0.051-0.056-0.074c-0.114-0.124-0.272-0.188-0.474-0.184c-0.002,0-0.006,0-0.01,0
						c-0.125,0-0.21-0.042-0.266-0.093c0.056-0.07,0.089-0.16,0.089-0.258c0-0.23-0.188-0.419-0.419-0.419
						c-0.23,0-0.417,0.188-0.417,0.419c0,0.231,0.188,0.417,0.417,0.417c0.037,0,0.071-0.005,0.105-0.012
						c0.103,0.113,0.266,0.214,0.504,0.209c0.124-0.002,0.214,0.03,0.273,0.097c0.07,0.075,0.093,0.185,0.1,0.267
						c0,0.002,0,0.004-0.002,0.004c-0.272,0.743-0.194,1.668-0.194,1.668l0.661,0.025c0.014-0.336,0.062-0.925,0.232-1.393
						c0.329-0.906,0.741-1.472,0.757-1.496l0.004-0.005c0.024-0.031,0.047-0.061,0.071-0.089l-0.196-0.142L136.789,436.492z"/>
					<path id="XMLID_457_" fill="#222222" d="M148.63,435.09c-0.23,0-0.419,0.187-0.419,0.417c0,0.037,0.006,0.071,0.016,0.104
						c-0.115,0.104-0.215,0.267-0.211,0.506c0.002,0.123-0.03,0.213-0.097,0.273c-0.053,0.047-0.119,0.071-0.185,0.087
						c-0.492-0.688-1.098-1.109-1.098-1.109l-0.474,0.509c0.358,0.326,0.725,0.734,1.08,1.244c0.246,0.352,0.499,0.806,0.71,1.258
						l0.64-0.304c0,0-0.292-0.722-0.703-1.369c0.071-0.025,0.143-0.063,0.206-0.12c0.126-0.113,0.188-0.272,0.184-0.474
						c-0.001-0.13,0.041-0.218,0.093-0.275c0.071,0.054,0.16,0.089,0.258,0.089c0.231,0,0.418-0.188,0.418-0.419
						C149.048,435.277,148.861,435.09,148.63,435.09z"/>
					<path id="XMLID_456_" fill="#222222" d="M146.969,440.84c-0.88,0.429-2.33,0.996-4.236,1.262
						c-0.75,0.104-1.475,0.143-2.143,0.143c-0.869,0-1.638-0.064-2.227-0.14c-0.672-0.084-1.198-0.188-1.52-0.261
						c0.078,0.245,0.171,0.487,0.284,0.724c0.002,0.006,0.005,0.013,0.008,0.018c0.013,0.027,0.027,0.056,0.041,0.083
						s0.027,0.055,0.041,0.079c0.004,0.008,0.007,0.015,0.01,0.021c0.189,0.356,0.417,0.684,0.676,0.968
						c0.899,0.984,1.816,1.139,1.825,1.141l0.015,0.002l0.013,0.005c0.009,0.003,0.821,0.265,2.057,0.265
						c1.215,0,2.409-0.244,3.545-0.729c0.842-0.431,1.639-1.085,2.033-1.668c0.306-0.452,0.526-0.934,0.656-1.434
						c0.069-0.266,0.124-0.692,0.092-1.141C147.891,440.345,147.499,440.583,146.969,440.84z"/>
					<path id="XMLID_452_" fill="#222222" d="M143.658,434.958c-0.265-0.044-0.477-0.068-0.777-0.068
						c-0.279,0-0.626,0.022-1.088,0.07c-0.465,0.049-0.982,0.171-1.583,0.373c-0.842,0.282-1.604,0.725-2.204,1.28l-0.02,0.019
						c-0.089,0.081-0.275,0.254-0.488,0.525c-0.025,0.037-0.408,0.578-0.709,1.408c-0.226,0.621-0.216,1.526-0.216,1.537v0.001
						c0,0.212,0.013,0.423,0.036,0.632c0,0.005,0,0.008,0.001,0.011c0.002,0.027,0.007,0.053,0.01,0.08
						c0.019,0.144,0.043,0.291,0.074,0.438c0.438,0.112,3.048,0.721,5.967,0.314c1.829-0.254,3.218-0.795,4.061-1.204
						c0.701-0.34,1.151-0.647,1.325-0.773c-0.173-0.643-0.651-1.65-1.089-2.278C145.703,435.532,144.352,435.073,143.658,434.958z
						 M140.015,440.217c-0.972,0-1.759-0.787-1.759-1.76c0-0.972,0.788-1.76,1.759-1.76c0.973,0,1.761,0.788,1.761,1.76
						C141.775,439.43,140.987,440.217,140.015,440.217z M145.164,438.92c-0.601,0-1.088-0.489-1.088-1.09
						c0-0.603,0.487-1.09,1.088-1.09s1.09,0.487,1.09,1.09C146.254,438.431,145.765,438.92,145.164,438.92z"/>
				</g>
			</g>
		</g>
	</g>
</g>
</svg>
