<?xml version="1.0" encoding="utf-8"?>
<!-- Generator: Adobe Illustrator 16.0.0, SVG Export Plug-In . SVG Version: 6.00 Build 0)  -->
<!DOCTYPE svg PUBLIC "-//W3C//DTD SVG 1.1//EN" "http://www.w3.org/Graphics/SVG/1.1/DTD/svg11.dtd">
<svg version="1.1" id="Layer_1" xmlns="http://www.w3.org/2000/svg" xmlns:xlink="http://www.w3.org/1999/xlink" x="0px" y="0px"
	 width="9.193px" height="9.194px" viewBox="0 0 9.193 9.194" enable-background="new 0 0 9.193 9.194" xml:space="preserve">
<g>
	<path fill="#222222" d="M3.788,7.501h1.169V4.572h0.816l0.088-0.98H4.958c0,0,0-0.366,0-0.559c0-0.231,0.046-0.323,0.271-0.323
		c0.18,0,0.633,0,0.633,0V1.692c0,0-0.668,0-0.811,0c-0.87,0-1.263,0.383-1.263,1.117c0,0.639,0,0.782,0,0.782H3.179v0.993h0.609
		V7.501z"/>
	<g>
		<path fill="#222222" d="M4.597,9.194C2.062,9.194,0,7.132,0,4.597S2.062,0,4.597,0c2.534,0,4.597,2.062,4.597,4.597
			S7.131,9.194,4.597,9.194z M4.597,0.405c-2.312,0-4.192,1.881-4.192,4.192c0,2.311,1.881,4.191,4.192,4.191
			s4.192-1.881,4.192-4.191C8.789,2.286,6.908,0.405,4.597,0.405z"/>
	</g>
</g>
</svg>
