<?xml version="1.0" encoding="utf-8"?>
<!-- Generator: Adobe Illustrator 16.0.0, SVG Export Plug-In . SVG Version: 6.00 Build 0)  -->
<!DOCTYPE svg PUBLIC "-//W3C//DTD SVG 1.1//EN" "http://www.w3.org/Graphics/SVG/1.1/DTD/svg11.dtd">
<svg version="1.1" id="Layer_1" xmlns="http://www.w3.org/2000/svg" xmlns:xlink="http://www.w3.org/1999/xlink" x="0px" y="0px"
	 width="8.662px" height="8.662px" viewBox="0 0 8.662 8.662" enable-background="new 0 0 8.662 8.662" xml:space="preserve">
<g>
	<g>
		<path fill="#222222" d="M4.331,2.352c0.673,0,0.753,0.002,1.019,0.015c0.246,0.011,0.379,0.052,0.468,0.086
			C5.936,2.5,6.02,2.554,6.107,2.642C6.195,2.73,6.25,2.814,6.296,2.932C6.33,3.021,6.371,3.154,6.383,3.4
			c0.012,0.266,0.015,0.345,0.015,1.018c0,0.673-0.003,0.752-0.015,1.018C6.371,5.683,6.33,5.816,6.296,5.905
			C6.25,6.022,6.195,6.106,6.107,6.194C6.02,6.283,5.936,6.338,5.817,6.384C5.729,6.418,5.596,6.459,5.35,6.47
			C5.084,6.482,5.004,6.485,4.331,6.485S3.578,6.482,3.313,6.47C3.067,6.459,2.934,6.418,2.845,6.384
			c-0.118-0.046-0.202-0.101-0.29-0.189C2.467,6.106,2.412,6.022,2.366,5.905C2.332,5.816,2.291,5.683,2.279,5.437
			C2.267,5.171,2.265,5.092,2.265,4.418c0-0.673,0.002-0.752,0.015-1.018c0.011-0.246,0.053-0.379,0.087-0.468
			c0.046-0.118,0.101-0.202,0.188-0.29C2.643,2.554,2.727,2.5,2.845,2.454c0.089-0.034,0.222-0.076,0.468-0.086
			C3.579,2.354,3.658,2.352,4.331,2.352 M4.331,1.898c-0.685,0-0.771,0.003-1.039,0.015S2.84,1.968,2.68,2.03
			C2.515,2.095,2.374,2.181,2.234,2.321S2.007,2.602,1.943,2.768c-0.062,0.16-0.105,0.344-0.117,0.612
			C1.813,3.648,1.811,3.734,1.811,4.418c0,0.684,0.003,0.77,0.015,1.04c0.012,0.268,0.055,0.451,0.117,0.611
			c0.064,0.166,0.151,0.307,0.291,0.447c0.14,0.14,0.281,0.226,0.446,0.29c0.16,0.063,0.343,0.104,0.612,0.117
			s0.354,0.015,1.039,0.015S5.102,6.937,5.37,6.924s0.452-0.055,0.612-0.117c0.166-0.064,0.307-0.15,0.446-0.29
			c0.14-0.141,0.226-0.281,0.29-0.447c0.063-0.16,0.105-0.344,0.117-0.611c0.013-0.27,0.016-0.355,0.016-1.04
			c0-0.685-0.003-0.77-0.016-1.039C6.824,3.111,6.781,2.928,6.719,2.768c-0.064-0.166-0.15-0.306-0.29-0.446S6.148,2.095,5.982,2.03
			C5.822,1.968,5.639,1.925,5.37,1.913S5.016,1.898,4.331,1.898"/>
		<path fill="#222222" d="M4.331,3.124c-0.715,0-1.294,0.58-1.294,1.294c0,0.715,0.58,1.294,1.294,1.294s1.294-0.579,1.294-1.294
			C5.625,3.704,5.046,3.124,4.331,3.124 M4.331,5.259c-0.464,0-0.84-0.376-0.84-0.84s0.376-0.84,0.84-0.84s0.841,0.376,0.841,0.84
			S4.795,5.259,4.331,5.259"/>
		<path fill="#222222" d="M5.979,3.073c0,0.167-0.135,0.302-0.302,0.302S5.374,3.24,5.374,3.073S5.51,2.771,5.677,2.771
			S5.979,2.906,5.979,3.073"/>
	</g>
	<g>
		<path fill="#222222" d="M4.331,8.662C1.943,8.662,0,6.72,0,4.331C0,1.943,1.943,0,4.331,0c2.388,0,4.331,1.943,4.331,4.331
			C8.662,6.72,6.719,8.662,4.331,8.662z M4.331,0.381c-2.178,0-3.95,1.772-3.95,3.95s1.772,3.95,3.95,3.95s3.95-1.772,3.95-3.95
			S6.509,0.381,4.331,0.381z"/>
	</g>
</g>
</svg>
