<?xml version="1.0" encoding="utf-8"?>
<!-- Generator: Adobe Illustrator 16.0.0, SVG Export Plug-In . SVG Version: 6.00 Build 0)  -->
<!DOCTYPE svg PUBLIC "-//W3C//DTD SVG 1.1//EN" "http://www.w3.org/Graphics/SVG/1.1/DTD/svg11.dtd">
<svg version="1.1" id="Layer_1" xmlns="http://www.w3.org/2000/svg" xmlns:xlink="http://www.w3.org/1999/xlink" x="0px" y="0px"
	 width="6.992px" height="9.624px" viewBox="0 0 6.992 9.624" enable-background="new 0 0 6.992 9.624" xml:space="preserve">
<path fill="#222222" d="M6.992,3.497C6.992,1.565,5.428,0,3.497,0S0,1.565,0,3.497c0,0.396,0.104,0.762,0.226,1.118L0.199,4.612
	L0.24,4.685c0.102,0.28,0.263,0.517,0.429,0.758l2.14,3.776C3.114,9.756,3.887,9.76,4.196,9.227l2.317-3.993L6.468,5.229
	C6.771,4.71,6.992,4.141,6.992,3.497z M3.424,5.632c-1.238,0-2.243-1.004-2.243-2.243c0-1.239,1.004-2.243,2.243-2.243
	c1.239,0,2.243,1.004,2.243,2.243C5.667,4.627,4.663,5.632,3.424,5.632z"/>
</svg>
