<?xml version="1.0" encoding="utf-8"?>
<!-- Generator: Adobe Illustrator 16.0.0, SVG Export Plug-In . SVG Version: 6.00 Build 0)  -->
<!DOCTYPE svg PUBLIC "-//W3C//DTD SVG 1.1//EN" "http://www.w3.org/Graphics/SVG/1.1/DTD/svg11.dtd">
<svg version="1.1" id="Layer_1" xmlns="http://www.w3.org/2000/svg" xmlns:xlink="http://www.w3.org/1999/xlink" x="0px" y="0px"
	 width="5.702px" height="11.11px" viewBox="0 0 5.702 11.11" enable-background="new 0 0 5.702 11.11" xml:space="preserve">
<path fill="#222222" d="M4.916,0h-4.13C0.354,0,0,0.354,0,0.786v9.539c0,0.432,0.354,0.785,0.786,0.785h4.13
	c0.433,0,0.786-0.354,0.786-0.785V0.786C5.702,0.354,5.348,0,4.916,0z M2.851,10.635c-0.404,0-0.731-0.327-0.731-0.73
	c0-0.404,0.327-0.731,0.731-0.731S3.582,9.5,3.582,9.905C3.582,10.308,3.254,10.635,2.851,10.635z M5.006,8.315
	c0,0.201-0.163,0.365-0.365,0.365H0.95c-0.202,0-0.365-0.164-0.365-0.365V1.023c0-0.202,0.164-0.366,0.365-0.366h3.691
	c0.202,0,0.365,0.164,0.365,0.366V8.315z"/>
</svg>
