<?xml version="1.0" encoding="utf-8"?>
<!-- Generator: Adobe Illustrator 16.0.0, SVG Export Plug-In . SVG Version: 6.00 Build 0)  -->
<!DOCTYPE svg PUBLIC "-//W3C//DTD SVG 1.1//EN" "http://www.w3.org/Graphics/SVG/1.1/DTD/svg11.dtd">
<svg version="1.1" id="Layer_1" xmlns="http://www.w3.org/2000/svg" xmlns:xlink="http://www.w3.org/1999/xlink" x="0px" y="0px"
	 width="9.241px" height="9.241px" viewBox="0 0 9.241 9.241" enable-background="new 0 0 9.241 9.241" xml:space="preserve">
<g>
	<path fill="#222222" d="M2.008,6.39c0.475,0.304,1.038,0.481,1.644,0.481c1.99,0,3.115-1.681,3.047-3.189
		c0.21-0.151,0.393-0.34,0.535-0.555C7.042,3.212,6.835,3.271,6.618,3.296c0.221-0.132,0.391-0.342,0.471-0.593
		c-0.207,0.123-0.436,0.212-0.68,0.261C6.213,2.755,5.935,2.625,5.626,2.625c-0.692,0-1.201,0.646-1.044,1.316
		C3.69,3.896,2.9,3.47,2.372,2.821C2.091,3.303,2.226,3.933,2.704,4.252C2.528,4.247,2.362,4.199,2.218,4.118
		C2.206,4.615,2.562,5.08,3.078,5.183c-0.151,0.041-0.316,0.05-0.484,0.019C2.73,5.627,3.126,5.938,3.595,5.946
		C3.145,6.299,2.577,6.458,2.008,6.39z"/>
	<g>
		<path fill="#222222" d="M4.621,9.241C2.073,9.241,0,7.168,0,4.621C0,2.073,2.073,0,4.621,0c2.548,0,4.62,2.073,4.62,4.621
			C9.241,7.168,7.169,9.241,4.621,9.241z M4.621,0.407c-2.324,0-4.214,1.891-4.214,4.214c0,2.323,1.891,4.213,4.214,4.213
			c2.323,0,4.214-1.891,4.214-4.213C8.835,2.297,6.944,0.407,4.621,0.407z"/>
	</g>
</g>
</svg>
